<?xml version="1.0" encoding="UTF-8" standalone="no"?>
<!-- Generator: Adobe Illustrator 16.0.0, SVG Export Plug-In . SVG Version: 6.00 Build 0)  -->

<svg
   xmlns:dc="http://purl.org/dc/elements/1.1/"
   xmlns:cc="http://creativecommons.org/ns#"
   xmlns:rdf="http://www.w3.org/1999/02/22-rdf-syntax-ns#"
   xmlns:svg="http://www.w3.org/2000/svg"
   xmlns="http://www.w3.org/2000/svg"
   xmlns:xlink="http://www.w3.org/1999/xlink"
   xmlns:sodipodi="http://sodipodi.sourceforge.net/DTD/sodipodi-0.dtd"
   xmlns:inkscape="http://www.inkscape.org/namespaces/inkscape"
   version="1.1"
   id="Слой_1"
   x="0px"
   y="0px"
   width="463.27307"
   height="463.09338"
   viewBox="0 0 463.27307 463.09338"
   enable-background="new 0 0 612 792"
   xml:space="preserve"
   inkscape:version="0.91 r13725"
   sodipodi:docname="gardening.svg"><metadata
   id="metadata31"><rdf:RDF><cc:Work
       rdf:about=""><dc:format>image/svg+xml</dc:format><dc:type
         rdf:resource="http://purl.org/dc/dcmitype/StillImage" /><dc:title></dc:title></cc:Work></rdf:RDF></metadata><defs
   id="defs29" /><sodipodi:namedview
   pagecolor="#ffffff"
   bordercolor="#666666"
   borderopacity="1"
   objecttolerance="10"
   gridtolerance="10"
   guidetolerance="10"
   inkscape:pageopacity="0"
   inkscape:pageshadow="2"
   inkscape:window-width="1366"
   inkscape:window-height="705"
   id="namedview27"
   showgrid="false"
   inkscape:zoom="0.5959596"
   inkscape:cx="19.400037"
   inkscape:cy="20.997747"
   inkscape:window-x="-8"
   inkscape:window-y="-8"
   inkscape:window-maximized="1"
   inkscape:current-layer="Слой_1"
   fit-margin-top="0"
   fit-margin-left="0"
   fit-margin-right="0"
   fit-margin-bottom="0" />
<g
   id="g3"
   transform="translate(-83.828602,-186)">
	<g
   id="g5">
		<defs
   id="defs7">
			<polygon
   id="SVGID_1_"
   points="132.5,606.26 132.5,234.5 132.5,234.5 471.38,234.5 471.38,606.26 " />
		</defs>
		<clipPath
   id="SVGID_2_">
			<use
   xlink:href="#SVGID_1_"
   overflow="visible"
   id="use11"
   style="overflow:visible"
   x="0"
   y="0"
   width="100%"
   height="100%" />
		</clipPath>
		<path
   clip-path="url(#SVGID_2_)"
   d="m 469.227,482.02 c -2.629,-7.194 -8.223,-12.761 -15.348,-15.28 -7.121,-2.517 -14.91,-1.73 -21.363,2.151 l -62.535,37.524 -8.602,3.683 -45.125,0 c -0.551,0 -0.859,-0.308 -1.023,-0.565 -0.16,-0.263 -0.301,-0.672 -0.055,-1.168 0.137,-0.285 0.379,-0.5 0.676,-0.605 l 34.238,-12.234 c 13.254,-4.453 20.844,-18.009 17.293,-30.891 -1.863,-6.762 -6.289,-12.297 -12.457,-15.582 -6.078,-3.234 -13.301,-3.84 -19.813,-1.657 l -35.336,11.774 -92.773,6.187 c -6.094,0.406 -11.824,3.009 -16.141,7.324 l -50.465,50.465 c -9.683,9.685 -10.578,25.039 -2.043,34.961 2.254,2.625 11.981,11.942 26.555,25.86 8.496,8.109 16.516,15.77 20.328,19.578 1.164,1.164 2.7,1.758 4.242,1.758 1.36,0 2.723,-0.461 3.84,-1.391 l 27.719,-23.103 c 5.813,-4.843 13.18,-7.507 20.742,-7.507 l 94.899,0 c 3.434,0 6.777,-0.688 9.938,-2.04 l 44.789,-19.199 c 0.125,-0.051 0.246,-0.108 0.367,-0.172 l 2.273,-1.16 c 0.121,-0.062 0.238,-0.129 0.355,-0.198 l 63.426,-38.06 c 10.707,-6.421 15.5,-19.226 11.399,-30.453 l 0,0 0,0 z"
   id="path13"
   inkscape:connector-curvature="0" />
	</g>
	<path
   d="m 343.48,412.637 0,13.864 c 0,3.312 2.684,6 6,6 3.313,0 6,-2.688 6,-6 l 0,-46.547 c 57.855,-8.021 103.199,-54.961 108.773,-113.567 0.168,-1.781 -0.465,-3.546 -1.73,-4.812 -1.266,-1.267 -3.035,-1.902 -4.813,-1.731 -45.16,4.297 -83.395,32.208 -102.23,71.262 l 0,-71.008 c 0,-7.277 5.922,-13.199 13.199,-13.199 3.313,0 6,-2.687 6,-6 0,-3.312 -2.688,-6 -6,-6 -13.895,0 -25.199,11.306 -25.199,25.199 l 0,22.571 c -12.477,-19.293 -33.332,-32.653 -57.434,-34.942 -1.777,-0.172 -3.547,0.465 -4.809,1.731 -1.265,1.265 -1.902,3.026 -1.73,4.808 3.316,34.896 29.836,62.965 63.973,68.676 l 0,40.849 c -18.836,-39.056 -57.07,-66.97 -102.234,-71.263 -1.781,-0.172 -3.543,0.466 -4.808,1.731 -1.266,1.265 -1.899,3.027 -1.731,4.808 5.57,58.606 50.918,105.551 108.773,113.57 l 0,0 0,0 z"
   id="path15"
   inkscape:connector-curvature="0" />
	<g
   id="g17">
		<defs
   id="defs19">
			<rect
   id="SVGID_3_"
   x="84"
   y="186"
   width="463"
   height="463" />
		</defs>
		<clipPath
   id="SVGID_4_">
			<use
   xlink:href="#SVGID_3_"
   overflow="visible"
   id="use23"
   style="overflow:visible"
   x="0"
   y="0"
   width="100%"
   height="100%" />
		</clipPath>
		<path
   clip-path="url(#SVGID_4_)"
   stroke-miterlimit="10"
   d="m 541.5,417.5 c 0,124.816 -101.184,226 -226,226 -124.816,0 -226,-101.184 -226,-226 0,-124.816 101.184,-226 226,-226 124.816,0 226,101.184 226,226 l 0,0 z"
   id="path25"
   inkscape:connector-curvature="0"
   style="fill:none;stroke:#000000;stroke-width:11;stroke-miterlimit:10" />
	</g>
</g>
<path
   style="fill:#ffffff;fill-opacity:1;stroke:#ffffc2;stroke-width:1.25344062;stroke-miterlimit:4;stroke-dasharray:none;stroke-opacity:1"
   d="M 217.6098,462.09414 C 172.45227,459.51859 129.68483,443.62995 91.762618,415.34034 78.979568,405.8043 57.411358,384.19489 47.636858,371.13027 6.4168007,316.03546 -8.2840473,249.63705 5.8634457,182.45488 12.700771,149.9865 29.839228,113.91719 51.155258,87.1345 58.850258,77.46606 77.829128,58.58246 87.567708,50.90484 123.71474,22.40755 164.57919,5.88732 209.85992,1.46589 222.55078,0.2267 253.75779,0.9644 265.43211,2.77957 c 49.62552,7.71596 94.495,30.35152 129.40066,65.27948 53.70598,53.74028 77.37399,128.88536 64.27514,204.07122 -13.97828,80.23371 -71.4339,148.47241 -148.78309,176.70621 -28.30507,10.33185 -61.29748,15.04955 -92.71502,13.25766 z m 46.41541,-12.03351 c 13.23922,-2.1601 23.54875,-4.58543 34.85165,-8.19891 70.44098,-22.51956 124.96875,-78.87606 145.23306,-150.10384 12.81955,-45.05989 10.87088,-92.87823 -5.61929,-137.89186 -3.83161,-10.45925 -13.70322,-30.37706 -19.95461,-40.26215 C 389.98792,68.46183 344.53409,34.15383 294.00644,19.61044 273.77281,13.78659 259.63913,11.65438 237.32618,11.05963 198.96704,10.03717 166.15408,17.29291 132.4533,34.24956 65.426308,67.97442 20.171678,133.22651 12.059173,207.84441 c -1.211369,11.14204 -1.217658,35.95857 -0.01196,47.19035 1.495621,13.93258 5.594715,32.68593 10.134095,46.36348 6.7904,20.46011 25.25665,56.18866 26.88985,52.02658 0.34341,-0.87514 0.65091,-2.25597 0.68335,-3.06853 0.20872,-5.22924 4.03086,-9.77064 31.44956,-37.36776 23.329052,-23.48087 28.560852,-28.33439 32.791602,-30.42072 5.53236,-2.72819 5.15638,-2.68482 46.98305,-5.41948 11.07458,-0.72406 27.94181,-1.83265 37.48274,-2.46354 l 17.34714,-1.14707 19.24936,-6.36686 c 15.9949,-5.29043 20.16711,-6.36686 24.67774,-6.36686 16.15576,0 28.14099,16.44832 22.99338,31.5557 -3.66342,10.75155 -8.39662,14.00372 -33.02143,22.68888 -14.68734,5.18022 -18.66228,6.89432 -18.66737,8.04991 -0.006,1.36334 1.66395,1.46822 23.3784,1.46822 22.1043,0 23.60895,-0.0988 27.4767,-1.8046 2.2505,-0.99253 18.24966,-10.3011 35.55368,-20.6857 17.30403,-10.38462 32.97204,-19.56912 34.8178,-20.41004 3.87275,-1.76437 12.38603,-2.06971 17.23134,-0.61802 5.48147,1.6423 10.98194,6.52173 14.09307,12.50188 2.63096,5.0572 2.7987,5.85679 2.45851,11.71987 -0.42181,7.26967 -2.4036,11.83947 -7.20102,16.60472 -1.72281,1.71126 -18.14059,12.1027 -36.48396,23.0921 -32.23553,19.31209 -34.17204,20.33685 -57.86883,30.62289 l -24.51725,10.64215 -54.53389,0.41949 c -53.59613,0.41228 -54.6105,0.4509 -58.98813,2.24544 -2.44983,1.00426 -5.84771,2.8754 -7.55085,4.15808 -4.66309,3.51188 -27.84662,22.97929 -27.84662,23.38304 0,0.19355 3.24738,2.27 7.21639,4.61432 27.40227,16.18528 55.45454,25.74045 87.5887,29.83448 11.90341,1.51654 46.84447,1.02021 58.16089,-0.82618 z"
   id="path4159"
   inkscape:connector-curvature="0" /><path
   style="fill:#ffffff;fill-opacity:1;stroke:#ffffc2;stroke-width:1.25344062;stroke-miterlimit:4;stroke-dasharray:none;stroke-opacity:1"
   d="m 261.78672,244.16802 c -1.08905,-1.2034 -1.3885,-3.27136 -1.3885,-9.58882 l 0,-8.05454 -4.82416,-0.92543 c -13.0931,-2.51167 -22.11547,-5.50548 -34.18856,-11.34449 -12.4738,-6.0328 -22.51402,-13.30746 -33.59985,-24.34481 -19.10012,-19.01661 -31.97148,-44.49783 -35.66723,-70.60985 -0.98324,-6.94695 -0.95094,-7.88092 0.34071,-9.85223 1.2255,-1.87035 2.02733,-2.17775 5.68045,-2.17775 5.85395,0 19.28429,2.84341 28.16671,5.96333 28.31765,9.94648 52.49378,29.59132 67.46239,54.81803 2.72336,4.5897 4.95157,8.64828 4.95157,9.01906 0,0.37079 0.37754,0.67415 0.83898,0.67415 0.53636,0 0.83899,-7.36866 0.83899,-20.42801 l 0,-20.428 -7.3041,-1.92955 c -29.38893,-7.76374 -51.66162,-32.47879 -56.48637,-62.68053 -0.72439,-4.53453 -0.65676,-5.80994 0.39304,-7.41214 1.88466,-2.87635 3.8901,-3.1488 11.99829,-1.63001 9.05467,1.69609 17.67979,4.98166 25.63055,9.76347 6.50582,3.91279 18.23896,14.59018 22.00576,20.02566 1.27219,1.83577 2.63926,3.33776 3.03794,3.33776 0.39869,0 0.72858,-6.32384 0.73308,-14.05297 0.008,-13.076 0.14862,-14.35456 2.02812,-18.39126 2.70165,-5.80251 7.92033,-10.70684 13.69031,-12.86566 6.25602,-2.34068 10.82462,-1.99053 13.04859,1.0001 1.47731,1.98656 1.54926,2.55978 0.6069,4.83482 -0.6894,1.66437 -1.85081,2.75613 -3.2701,3.07401 -9.33534,2.09082 -11.10298,3.12352 -13.54724,7.91468 -1.61041,3.15665 -1.66699,4.72598 -1.45699,40.40937 l 0.21849,37.12518 3.99892,-7.11524 c 5.90941,-10.51457 11.57203,-17.77326 21.94982,-28.13662 17.60242,-17.57794 38.80213,-28.91868 63.44744,-33.94107 18.38206,-3.74603 20.21614,-2.41933 17.61449,12.74157 -8.85139,51.58094 -47.40823,91.90899 -98.444,102.96631 -4.46485,0.96735 -8.31327,1.75881 -8.55203,1.75881 -0.23878,0 -0.43413,10.86472 -0.43413,24.14383 0,20.49419 -0.19743,24.4257 -1.30605,26.00847 -1.64651,2.35072 -6.21742,2.5346 -8.21223,0.33037 z"
   id="path4161"
   inkscape:connector-curvature="0" /></svg>