<?xml version="1.0" encoding="UTF-8" standalone="no"?>
<!-- Created with Inkscape (http://www.inkscape.org/) -->

<svg
   xmlns:dc="http://purl.org/dc/elements/1.1/"
   xmlns:cc="http://creativecommons.org/ns#"
   xmlns:rdf="http://www.w3.org/1999/02/22-rdf-syntax-ns#"
   xmlns:svg="http://www.w3.org/2000/svg"
   xmlns="http://www.w3.org/2000/svg"
   xmlns:sodipodi="http://sodipodi.sourceforge.net/DTD/sodipodi-0.dtd"
   xmlns:inkscape="http://www.inkscape.org/namespaces/inkscape"
   id="svg2"
   version="1.1"
   inkscape:version="0.91 r13725"
   xml:space="preserve"
   width="237.59512"
   height="228.01793"
   viewBox="0 0 237.59512 228.01793"
   sodipodi:docname="medal_1.svg"><metadata
     id="metadata8"><rdf:RDF><cc:Work
         rdf:about=""><dc:format>image/svg+xml</dc:format><dc:type
           rdf:resource="http://purl.org/dc/dcmitype/StillImage" /><dc:title></dc:title></cc:Work></rdf:RDF></metadata><defs
     id="defs6"><clipPath
       clipPathUnits="userSpaceOnUse"
       id="clipPath16"><path
         d="M 0,800 800,800 800,0 0,0 0,800 Z"
         id="path18"
         inkscape:connector-curvature="0" /></clipPath><clipPath
       clipPathUnits="userSpaceOnUse"
       id="clipPath188"><path
         d="M 0,800 800,800 800,0 0,0 0,800 Z"
         id="path190"
         inkscape:connector-curvature="0" /></clipPath></defs><sodipodi:namedview
     pagecolor="#ffffff"
     bordercolor="#666666"
     borderopacity="1"
     objecttolerance="10"
     gridtolerance="10"
     guidetolerance="10"
     inkscape:pageopacity="0"
     inkscape:pageshadow="2"
     inkscape:window-width="1366"
     inkscape:window-height="705"
     id="namedview4"
     showgrid="false"
     borderlayer="true"
     inkscape:zoom="3.776"
     inkscape:cx="100.19378"
     inkscape:cy="-10.515598"
     inkscape:window-x="-8"
     inkscape:window-y="-8"
     inkscape:window-maximized="1"
     inkscape:current-layer="g10"
     fit-margin-top="0"
     fit-margin-left="0"
     fit-margin-right="0"
     fit-margin-bottom="0" /><g
     id="g10"
     inkscape:groupmode="layer"
     inkscape:label="медаль 1"
     transform="matrix(1.25,0,0,-1.25,-378.42306,310.91377)"><g
   id="g12"><g
     id="g14"
     clip-path="url(#clipPath16)"><g
       id="g20"
       transform="translate(492.8145,157.7627)"><path
         d="m 0,0 c 0.024,-9.81 -9.525,-18.01 -12.377,-26.869 -2.956,-9.181 -0.091,-21.394 -5.63,-29.043 -5.595,-7.727 -18.126,-8.815 -25.824,-14.447 -7.62,-5.575 -12.44,-17.215 -21.606,-20.215 -8.844,-2.897 -19.575,3.537 -29.384,3.513 -9.809,-0.025 -20.508,-6.512 -29.366,-3.661 -9.18,2.954 -14.057,14.571 -21.708,20.107 -7.726,5.594 -20.264,6.619 -25.895,14.316 -5.576,7.622 -2.774,19.849 -5.777,29.016 -2.894,8.844 -12.484,16.997 -12.509,26.806 -0.025,9.809 9.524,18.012 12.374,26.869 2.956,9.18 0.094,21.393 5.631,29.043 5.593,7.726 18.126,8.815 25.823,14.445 7.623,5.576 12.442,17.217 21.607,20.217 8.843,2.896 19.575,-3.539 29.384,-3.514 9.81,0.024 20.507,6.513 29.366,3.661 9.181,-2.954 14.059,-14.569 21.707,-20.107 7.727,-5.593 20.264,-6.617 25.897,-14.316 5.577,-7.622 2.773,-19.848 5.775,-29.014 C -9.616,17.965 -0.025,9.809 0,0"
         style="fill:#ffffff;fill-opacity:1;fill-rule:nonzero;stroke:none"
         id="path22"
         inkscape:connector-curvature="0" /></g><g
       id="g24"
       transform="translate(480.7744,157.0566)"><path
         d="m 0,0 c 0.115,-45.619 -36.773,-82.692 -82.393,-82.808 -45.618,-0.114 -82.693,36.774 -82.808,82.394 -0.115,45.617 36.775,82.692 82.393,82.808 C -37.189,82.508 -0.114,45.618 0,0"
         style="fill:#f7f2f2;fill-opacity:1;fill-rule:nonzero;stroke:none"
         id="path26"
         inkscape:connector-curvature="0" /></g><g
       id="g28"
       transform="translate(397.9688,238.4355)"><path
         d="m 0,0 c -44.986,-0.113 -81.494,-36.804 -81.381,-81.791 0.113,-44.987 36.804,-81.494 81.791,-81.382 44.987,0.114 81.495,36.805 81.382,81.792 C 81.68,-36.393 44.988,0.112 0,0 m 0.415,-165.199 c -46.104,-0.115 -83.707,37.299 -83.822,83.403 -0.116,46.105 37.298,83.707 83.402,83.823 C 46.1,2.143 83.703,-35.271 83.818,-81.376 83.935,-127.48 46.52,-165.083 0.415,-165.199"
         style="fill:#004143;fill-opacity:1;fill-rule:nonzero;stroke:none"
         id="path30"
         inkscape:connector-curvature="0" /></g><g
       id="g32"
       transform="translate(397.98,233.8965)"><path
         d="m 0,0 c -42.482,-0.107 -76.958,-34.757 -76.851,-77.24 0.106,-42.485 34.756,-76.96 77.238,-76.854 42.484,0.108 76.96,34.756 76.854,77.24 C 77.133,-34.37 42.483,0.106 0,0 m 0.39,-155.337 c -43.168,-0.108 -78.377,34.924 -78.485,78.094 -0.109,43.168 34.924,78.378 78.092,78.486 43.169,0.109 78.378,-34.926 78.486,-78.094 0.109,-43.169 -34.923,-78.378 -78.093,-78.486"
         style="fill:#cc5d33;fill-opacity:1;fill-rule:nonzero;stroke:none"
         id="path34"
         inkscape:connector-curvature="0" /></g><g
       id="g36"
       transform="translate(331.3911,163.5381)"><path
         d="m 0,0 1.919,-3.862 4.269,-0.61 -3.081,-3.018 0.741,-4.25 -3.824,1.997 -3.812,-2.016 0.718,4.253 -3.097,3.003 4.268,0.631 L 0,0 Z"
         style="fill:#cc5d33;fill-opacity:1;fill-rule:nonzero;stroke:none"
         id="path38"
         inkscape:connector-curvature="0" /></g><g
       id="g40"
       transform="translate(462.6904,163.8682)"><path
         d="m 0,0 1.919,-3.862 4.27,-0.61 -3.082,-3.018 0.741,-4.25 -3.824,1.997 -3.811,-2.017 0.718,4.254 -3.096,3.003 4.266,0.631 L 0,0 Z"
         style="fill:#cc5d33;fill-opacity:1;fill-rule:nonzero;stroke:none"
         id="path42"
         inkscape:connector-curvature="0" /></g><g
       id="g44"
       transform="translate(450.835,157.6572)"><path
         d="m 0,0 c 0.073,-29.304 -23.623,-53.119 -52.926,-53.192 -29.304,-0.074 -53.119,23.622 -53.193,52.926 -0.073,29.302 23.622,53.118 52.926,53.192 C -23.89,52.999 -0.074,29.303 0,0"
         style="fill:#ffffff;fill-opacity:1;fill-rule:nonzero;stroke:none"
         id="path46"
         inkscape:connector-curvature="0" /></g><g
       id="g48"
       transform="translate(397.644,209.8574)"><path
         d="m 0,0 c -28.856,-0.072 -52.274,-23.609 -52.202,-52.465 0.073,-28.855 23.608,-52.274 52.465,-52.202 28.858,0.072 52.275,23.609 52.202,52.466 C 52.393,-23.347 28.858,0.072 0,0 m 0.267,-106.119 c -29.657,-0.074 -53.845,23.994 -53.92,53.651 -0.074,29.656 23.993,53.845 53.649,53.919 29.658,0.074 53.847,-23.994 53.921,-53.649 0.075,-29.657 -23.994,-53.847 -53.65,-53.921"
         style="fill:#ffffff;fill-opacity:1;fill-rule:nonzero;stroke:none"
         id="path50"
         inkscape:connector-curvature="0" /></g><g
       id="g52"
       transform="translate(408.1601,116.8638)"><path
         d="m 0,0 c -1.573,0.473 -3.091,0.07 -3.384,-0.91 -0.299,-0.98 0.739,-2.156 2.315,-2.633 1.573,-0.478 4.309,0.63 4.309,0.63 0,0 -1.666,2.435 -3.24,2.913"
         style="fill:#cc5d33;fill-opacity:1;fill-rule:nonzero;stroke:none"
         id="path54"
         inkscape:connector-curvature="0" /></g><g
       id="g56"
       transform="translate(404.9355,121.0631)"><path
         d="M 0,0 C -0.86,-1.059 -1.021,-2.351 -0.362,-2.887 0.297,-3.42 1.525,-2.989 2.386,-1.933 3.243,-0.869 3.25,1.575 3.25,1.575 3.25,1.575 0.857,1.061 0,0"
         style="fill:#cc5d33;fill-opacity:1;fill-rule:nonzero;stroke:none"
         id="path58"
         inkscape:connector-curvature="0" /></g><g
       id="g60"
       transform="translate(409.2597,122.7047)"><path
         d="M 0,0 C -0.557,-1.244 -0.385,-2.535 0.389,-2.882 1.166,-3.229 2.242,-2.5 2.802,-1.258 3.361,-0.012 2.736,2.356 2.736,2.356 2.736,2.356 0.56,1.244 0,0"
         style="fill:#cc5d33;fill-opacity:1;fill-rule:nonzero;stroke:none"
         id="path62"
         inkscape:connector-curvature="0" /></g><g
       id="g64"
       transform="translate(413.83,125.3629)"><path
         d="M 0,0 C -0.488,-1.276 -0.243,-2.551 0.547,-2.853 1.345,-3.16 2.378,-2.371 2.868,-1.099 3.353,0.178 2.6,2.508 2.6,2.508 2.6,2.508 0.485,1.276 0,0"
         style="fill:#cc5d33;fill-opacity:1;fill-rule:nonzero;stroke:none"
         id="path66"
         inkscape:connector-curvature="0" /></g><g
       id="g68"
       transform="translate(417.9366,128.4635)"><path
         d="M 0,0 C -0.219,-1.184 0.196,-2.253 0.928,-2.388 1.663,-2.525 2.434,-1.68 2.66,-0.5 2.88,0.683 1.857,2.58 1.857,2.58 1.857,2.58 0.22,1.179 0,0"
         style="fill:#cc5d33;fill-opacity:1;fill-rule:nonzero;stroke:none"
         id="path70"
         inkscape:connector-curvature="0" /></g><g
       id="g72"
       transform="translate(420.9034,131.8736)"><path
         d="M 0,0 C -0.1,-1.098 0.372,-2.038 1.054,-2.096 1.737,-2.165 2.37,-1.32 2.467,-0.223 2.566,0.873 1.47,2.52 1.47,2.52 1.47,2.52 0.102,1.096 0,0"
         style="fill:#cc5d33;fill-opacity:1;fill-rule:nonzero;stroke:none"
         id="path74"
         inkscape:connector-curvature="0" /></g><g
       id="g76"
       transform="translate(423.0488,135.4478)"><path
         d="m 0,0 c 0.095,-0.933 0.64,-1.639 1.218,-1.581 0.58,0.058 0.97,0.86 0.875,1.794 C 2,1.144 0.817,2.337 0.817,2.337 0.817,2.337 -0.099,0.93 0,0"
         style="fill:#cc5d33;fill-opacity:1;fill-rule:nonzero;stroke:none"
         id="path78"
         inkscape:connector-curvature="0" /></g><g
       id="g80"
       transform="translate(424.3369,139.1412)"><path
         d="m 0,0 c 0.091,-0.932 0.632,-1.639 1.209,-1.584 0.58,0.056 0.975,0.858 0.886,1.792 C 2.009,1.136 0.827,2.337 0.827,2.337 0.827,2.337 -0.094,0.935 0,0"
         style="fill:#cc5d33;fill-opacity:1;fill-rule:nonzero;stroke:none"
         id="path82"
         inkscape:connector-curvature="0" /></g><g
       id="g84"
       transform="translate(413.4521,118.3111)"><path
         d="m 0,0 c -1.635,0.19 -3.052,-0.475 -3.173,-1.491 -0.116,-1.013 1.11,-1.991 2.745,-2.184 1.635,-0.194 4.132,1.385 4.132,1.385 0,0 -2.066,2.099 -3.704,2.29"
         style="fill:#cc5d33;fill-opacity:1;fill-rule:nonzero;stroke:none"
         id="path86"
         inkscape:connector-curvature="0" /></g><g
       id="g88"
       transform="translate(417.6866,121.0719)"><path
         d="m 0,0 c -1.639,-0.152 -2.885,-1.107 -2.791,-2.122 0.097,-1.021 1.503,-1.715 3.141,-1.561 1.636,0.15 3.751,2.211 3.751,2.211 0,0 -2.464,1.626 -4.101,1.472"
         style="fill:#cc5d33;fill-opacity:1;fill-rule:nonzero;stroke:none"
         id="path90"
         inkscape:connector-curvature="0" /></g><g
       id="g92"
       transform="translate(421.4912,124.3892)"><path
         d="m 0,0 c -1.294,-0.502 -2.095,-1.562 -1.779,-2.366 0.311,-0.806 1.615,-1.054 2.91,-0.552 1.296,0.502 2.548,2.661 2.548,2.661 0,0 -2.375,0.758 -3.679,0.257"
         style="fill:#cc5d33;fill-opacity:1;fill-rule:nonzero;stroke:none"
         id="path94"
         inkscape:connector-curvature="0" /></g><g
       id="g96"
       transform="translate(424.2822,128.776)"><path
         d="m 0,0 c -1.215,-0.765 -1.81,-1.999 -1.332,-2.749 0.477,-0.754 1.845,-0.739 3.055,0.025 1.21,0.766 2.036,3.201 2.036,3.201 0,0 -2.55,0.291 -3.759,-0.477"
         style="fill:#cc5d33;fill-opacity:1;fill-rule:nonzero;stroke:none"
         id="path98"
         inkscape:connector-curvature="0" /></g><g
       id="g100"
       transform="translate(426.6142,133.0318)"><path
         d="m 0,0 c -1.005,-0.79 -1.419,-1.936 -0.928,-2.558 0.493,-0.626 1.704,-0.487 2.709,0.302 1.002,0.788 1.515,3.022 1.515,3.022 0,0 -2.29,0.025 -3.296,-0.766"
         style="fill:#cc5d33;fill-opacity:1;fill-rule:nonzero;stroke:none"
         id="path102"
         inkscape:connector-curvature="0" /></g><g
       id="g104"
       transform="translate(427.8193,136.9752)"><path
         d="M 0,0 C -0.776,-0.714 -1.044,-1.681 -0.605,-2.159 -0.159,-2.645 0.824,-2.461 1.601,-1.748 2.378,-1.037 2.662,0.83 2.662,0.83 2.662,0.83 0.777,0.71 0,0"
         style="fill:#cc5d33;fill-opacity:1;fill-rule:nonzero;stroke:none"
         id="path106"
         inkscape:connector-curvature="0" /></g><g
       id="g108"
       transform="translate(427.7109,140.2808)"><path
         d="m 0,0 c -0.585,-0.859 -0.626,-1.844 -0.095,-2.206 0.534,-0.368 1.438,0.031 2.027,0.892 0.586,0.852 0.439,2.709 0.439,2.709 C 2.371,1.395 0.59,0.857 0,0"
         style="fill:#cc5d33;fill-opacity:1;fill-rule:nonzero;stroke:none"
         id="path110"
         inkscape:connector-curvature="0" /></g><g
       id="g112"
       transform="translate(426.6904,139.2476)"><path
         d="m 0,0 c 0.071,-3.24 -1.386,-6.268 -3.147,-8.885 -1.789,-2.639 -4.038,-4.964 -6.534,-6.93 -2.509,-1.957 -5.306,-3.519 -8.24,-4.674 -2.932,-1.169 -6.097,-1.773 -9.31,-1.567 l -0.014,-0.095 c 3.175,-0.758 6.565,-0.287 9.652,0.768 3.109,1.083 5.899,2.893 8.394,4.975 2.493,2.087 4.706,4.518 6.446,7.262 0.863,1.376 1.6,2.834 2.13,4.37 0.52,1.533 0.833,3.162 0.715,4.777 L 0,0 Z"
         style="fill:#cc5d33;fill-opacity:1;fill-rule:nonzero;stroke:none"
         id="path114"
         inkscape:connector-curvature="0" /></g><g
       id="g116"
       transform="translate(388.2944,116.8131)"><path
         d="m 0,0 c 1.57,0.482 3.092,0.086 3.39,-0.893 0.305,-0.977 -0.727,-2.16 -2.3,-2.644 -1.571,-0.486 -4.311,0.608 -4.311,0.608 0,0 1.65,2.444 3.221,2.929"
         style="fill:#cc5d33;fill-opacity:1;fill-rule:nonzero;stroke:none"
         id="path118"
         inkscape:connector-curvature="0" /></g><g
       id="g120"
       transform="translate(391.4975,121.0299)"><path
         d="m 0,0 c 0.867,-1.055 1.034,-2.347 0.378,-2.885 -0.657,-0.537 -1.887,-0.112 -2.753,0.941 -0.864,1.057 -0.883,3.502 -0.883,3.502 0,0 2.396,-0.501 3.258,-1.558"
         style="fill:#cc5d33;fill-opacity:1;fill-rule:nonzero;stroke:none"
         id="path122"
         inkscape:connector-curvature="0" /></g><g
       id="g124"
       transform="translate(387.1674,122.65)"><path
         d="m 0,0 c 0.562,-1.242 0.398,-2.533 -0.372,-2.884 -0.775,-0.35 -1.859,0.372 -2.422,1.611 -0.565,1.244 0.045,3.616 0.045,3.616 0,0 2.183,-1.103 2.749,-2.343"
         style="fill:#cc5d33;fill-opacity:1;fill-rule:nonzero;stroke:none"
         id="path126"
         inkscape:connector-curvature="0" /></g><g
       id="g128"
       transform="translate(382.5834,125.2847)"><path
         d="m 0,0 c 0.496,-1.274 0.258,-2.55 -0.532,-2.856 -0.794,-0.312 -1.832,0.473 -2.329,1.742 -0.493,1.274 0.248,3.608 0.248,3.608 0,0 2.121,-1.22 2.613,-2.494"
         style="fill:#cc5d33;fill-opacity:1;fill-rule:nonzero;stroke:none"
         id="path130"
         inkscape:connector-curvature="0" /></g><g
       id="g132"
       transform="translate(378.4624,128.3638)"><path
         d="m 0,0 c 0.225,-1.182 -0.185,-2.253 -0.917,-2.392 -0.733,-0.141 -1.508,0.701 -1.741,1.879 -0.226,1.182 0.788,3.084 0.788,3.084 0,0 1.645,-1.392 1.87,-2.571"
         style="fill:#cc5d33;fill-opacity:1;fill-rule:nonzero;stroke:none"
         id="path134"
         inkscape:connector-curvature="0" /></g><g
       id="g136"
       transform="translate(375.4775,131.7603)"><path
         d="m 0,0 c 0.105,-1.098 -0.36,-2.04 -1.043,-2.101 -0.684,-0.074 -1.319,0.768 -1.422,1.865 -0.104,1.095 0.983,2.748 0.983,2.748 0,0 1.375,-1.418 1.482,-2.512"
         style="fill:#cc5d33;fill-opacity:1;fill-rule:nonzero;stroke:none"
         id="path138"
         inkscape:connector-curvature="0" /></g><g
       id="g140"
       transform="translate(373.3164,135.3228)"><path
         d="m 0,0 c -0.09,-0.933 -0.632,-1.642 -1.21,-1.587 -0.582,0.055 -0.976,0.856 -0.887,1.79 0.092,0.931 1.266,2.13 1.266,2.13 0,0 0.924,-1.403 0.831,-2.333"
         style="fill:#cc5d33;fill-opacity:1;fill-rule:nonzero;stroke:none"
         id="path142"
         inkscape:connector-curvature="0" /></g><g
       id="g144"
       transform="translate(372.0083,139.0103)"><path
         d="m 0,0 c -0.087,-0.933 -0.622,-1.642 -1.202,-1.59 -0.581,0.052 -0.977,0.853 -0.89,1.786 0.08,0.929 1.25,2.136 1.25,2.136 0,0 0.931,-1.397 0.842,-2.332"
         style="fill:#cc5d33;fill-opacity:1;fill-rule:nonzero;stroke:none"
         id="path146"
         inkscape:connector-curvature="0" /></g><g
       id="g148"
       transform="translate(382.9995,118.2349)"><path
         d="M 0,0 C 1.63,0.198 3.051,-0.459 3.178,-1.475 3.301,-2.488 2.08,-3.473 0.444,-3.673 c -1.634,-0.202 -4.139,1.364 -4.139,1.364 0,0 2.055,2.11 3.695,2.309"
         style="fill:#cc5d33;fill-opacity:1;fill-rule:nonzero;stroke:none"
         id="path150"
         inkscape:connector-curvature="0" /></g><g
       id="g152"
       transform="translate(378.7504,120.9742)"><path
         d="m 0,0 c 1.64,-0.145 2.889,-1.094 2.801,-2.108 -0.09,-1.021 -1.494,-1.723 -3.131,-1.577 -1.638,0.142 -3.765,2.192 -3.765,2.192 0,0 2.457,1.639 4.095,1.493"
         style="fill:#cc5d33;fill-opacity:1;fill-rule:nonzero;stroke:none"
         id="path154"
         inkscape:connector-curvature="0" /></g><g
       id="g156"
       transform="translate(374.9258,124.272)"><path
         d="m 0,0 c 1.297,-0.496 2.104,-1.552 1.795,-2.356 -0.31,-0.808 -1.61,-1.062 -2.908,-0.568 -1.299,0.496 -2.561,2.65 -2.561,2.65 0,0 2.372,0.769 3.674,0.274"
         style="fill:#cc5d33;fill-opacity:1;fill-rule:nonzero;stroke:none"
         id="path158"
         inkscape:connector-curvature="0" /></g><g
       id="g160"
       transform="translate(372.1171,128.6451)"><path
         d="M 0,0 C 1.218,-0.759 1.817,-1.989 1.345,-2.743 0.873,-3.499 -0.498,-3.49 -1.71,-2.732 -2.924,-1.974 -3.763,0.457 -3.763,0.457 -3.763,0.457 -1.214,0.762 0,0"
         style="fill:#cc5d33;fill-opacity:1;fill-rule:nonzero;stroke:none"
         id="path162"
         inkscape:connector-curvature="0" /></g><g
       id="g164"
       transform="translate(369.7626,132.8892)"><path
         d="M 0,0 C 1.005,-0.785 1.427,-1.93 0.941,-2.554 0.449,-3.182 -0.76,-3.049 -1.768,-2.266 -2.777,-1.481 -3.301,0.748 -3.301,0.748 -3.301,0.748 -1.01,0.785 0,0"
         style="fill:#cc5d33;fill-opacity:1;fill-rule:nonzero;stroke:none"
         id="path166"
         inkscape:connector-curvature="0" /></g><g
       id="g168"
       transform="translate(368.5361,136.8267)"><path
         d="m 0,0 c 0.782,-0.71 1.057,-1.676 0.616,-2.157 -0.444,-0.488 -1.427,-0.308 -2.206,0.401 -0.783,0.707 -1.078,2.572 -1.078,2.572 0,0 1.891,-0.11 2.668,-0.816"
         style="fill:#cc5d33;fill-opacity:1;fill-rule:nonzero;stroke:none"
         id="path170"
         inkscape:connector-curvature="0" /></g><g
       id="g172"
       transform="translate(368.6303,140.1324)"><path
         d="m 0,0 c 0.586,-0.856 0.635,-1.84 0.105,-2.206 -0.531,-0.37 -1.437,0.025 -2.033,0.882 -0.59,0.85 -0.45,2.707 -0.45,2.707 0,0 1.781,-0.528 2.378,-1.383"
         style="fill:#cc5d33;fill-opacity:1;fill-rule:nonzero;stroke:none"
         id="path174"
         inkscape:connector-curvature="0" /></g><g
       id="g176"
       transform="translate(369.6552,139.1051)"><path
         d="m 0,0 c -0.057,-3.241 1.416,-6.262 3.191,-8.869 1.804,-2.632 4.062,-4.944 6.567,-6.898 2.52,-1.945 5.325,-3.493 8.264,-4.632 2.938,-1.156 6.106,-1.742 9.318,-1.52 l 0.017,-0.096 c -3.174,-0.773 -6.567,-0.32 -9.659,0.72 -3.114,1.067 -5.911,2.863 -8.416,4.932 -2.508,2.075 -4.731,4.495 -6.488,7.23 -0.866,1.372 -1.609,2.826 -2.148,4.359 -0.528,1.531 -0.85,3.158 -0.74,4.773 L 0,0 Z"
         style="fill:#cc5d33;fill-opacity:1;fill-rule:nonzero;stroke:none"
         id="path178"
         inkscape:connector-curvature="0" /></g></g></g><text
   transform="matrix(1,0,0,-1,350,152.1084)"
   style="font-variant:normal;font-weight:bold;font-stretch:normal;font-size:20px;font-family:'Open Sans';-inkscape-font-specification:OpenSans-Bold;writing-mode:lr-tb;fill:#cc5d33;fill-opacity:1;fill-rule:nonzero;stroke:none"
   id="text180"><tspan
     x="0 13.8 26.459999 39.119999 47.792 59.776001 71.155998 82.975998"
     y="0"
     sodipodi:role="line"
     id="tspan182">Approved</tspan></text>

<g
   id="g184"><g
     id="g186"
     clip-path="url(#clipPath188)"><g
       id="g192"
       transform="translate(333.0909,184.4379)"><path
         d="M 0,0 C -0.484,-0.928 -0.592,-1.765 -0.333,-2.472 -0.075,-3.179 0.517,-3.691 1.429,-4.02 3.328,-4.706 4.702,-4.125 5.641,-2.374 6.035,-1.639 6.374,-0.7 6.686,0.454 7.267,0.173 7.558,0.032 8.14,-0.249 7.938,-1.193 7.56,-2.165 7.007,-3.196 6.212,-4.678 5.273,-5.711 4.125,-6.298 2.977,-6.885 1.691,-6.995 0.265,-6.552 c -0.898,0.278 -1.588,0.748 -2.059,1.428 -0.471,0.679 -0.687,1.526 -0.637,2.522 0.051,0.997 0.368,2.085 0.957,3.222 0.6,1.16 1.422,2.217 2.451,3.138 C 1.359,3.171 1.552,2.881 1.943,2.308 1.559,1.961 1.194,1.595 0.85,1.212 0.505,0.83 0.221,0.424 0,0"
         style="fill:#000000;fill-opacity:1;fill-rule:nonzero;stroke:none"
         id="path194"
         inkscape:connector-curvature="0" /></g><g
       id="g196"
       transform="translate(342.6859,191.5809)"><path
         d="m 0,0 c -0.215,-0.309 -0.322,-0.465 -0.534,-0.778 -0.399,-0.587 -0.615,-1.077 -0.653,-1.456 -0.039,-0.38 0.106,-0.663 0.43,-0.849 0.465,-0.267 0.911,-0.078 1.352,0.551 C 0.911,-2.081 1.06,-1.66 1.04,-1.258 1.02,-0.855 0.836,-0.539 0.483,-0.311 0.29,-0.187 0.193,-0.125 0,0 M 3.127,-1.21 C 2.703,-1.142 2.49,-1.11 2.063,-1.048 2.048,-1.067 2.041,-1.077 2.026,-1.097 2.129,-1.632 2.127,-2.106 2.018,-2.523 1.908,-2.94 1.663,-3.418 1.287,-3.968 0.823,-4.643 0.301,-5.092 -0.294,-5.315 c -0.596,-0.223 -1.207,-0.181 -1.832,0.143 -0.655,0.341 -0.961,0.879 -0.903,1.619 0.058,0.742 0.453,1.707 1.205,2.848 0.351,0.529 0.529,0.79 0.89,1.307 -0.103,0.067 -0.155,0.1 -0.258,0.166 -0.594,0.384 -1.179,0.19 -1.735,-0.605 -0.428,-0.613 -0.78,-1.43 -1.036,-2.443 -0.633,-0.035 -0.95,-0.056 -1.586,-0.107 0.219,1.134 0.712,2.271 1.479,3.37 0.733,1.051 1.489,1.723 2.232,2.027 C -1.095,3.314 -0.382,3.212 0.3,2.733 1.825,1.66 2.588,1.124 4.113,0.051 3.714,-0.447 3.517,-0.699 3.127,-1.21"
         style="fill:#000000;fill-opacity:1;fill-rule:nonzero;stroke:none"
         id="path198"
         inkscape:connector-curvature="0" /></g><g
       id="g200"
       transform="translate(353.5616,198.8668)"><path
         d="m 0,0 c -0.652,-0.598 -0.974,-0.904 -1.609,-1.528 -1.208,1.121 -1.812,1.681 -3.02,2.801 -0.372,0.345 -0.732,0.525 -1.08,0.534 -0.349,0.01 -0.7,-0.166 -1.049,-0.531 -0.475,-0.495 -0.677,-0.98 -0.61,-1.435 0.069,-0.456 0.425,-0.946 1.063,-1.477 1.017,-0.845 1.525,-1.268 2.542,-2.113 -0.61,-0.661 -0.911,-0.997 -1.503,-1.684 -2.225,1.706 -3.338,2.559 -5.564,4.265 0.5,0.595 0.753,0.888 1.266,1.466 0.368,-0.125 0.552,-0.188 0.919,-0.317 0.037,0.041 0.055,0.062 0.093,0.103 -0.076,0.422 -0.014,0.873 0.189,1.346 0.202,0.473 0.521,0.939 0.957,1.387 0.746,0.767 1.488,1.18 2.198,1.246 0.711,0.067 1.36,-0.207 1.952,-0.8 C -1.953,1.958 -1.302,1.305 0,0"
         style="fill:#000000;fill-opacity:1;fill-rule:nonzero;stroke:none"
         id="path202"
         inkscape:connector-curvature="0" /></g><g
       id="g204"
       transform="translate(356.6956,205.7319)"><path
         d="m 0,0 c -0.279,-0.221 -0.417,-0.333 -0.693,-0.559 -0.521,-0.421 -0.846,-0.812 -0.979,-1.158 -0.133,-0.347 -0.072,-0.664 0.177,-0.952 0.358,-0.413 0.816,-0.388 1.385,0.058 0.407,0.32 0.652,0.67 0.739,1.059 0.086,0.391 -0.001,0.755 -0.266,1.091 C 0.218,-0.276 0.145,-0.184 0,0 M 2.56,-2.214 C 2.188,-2.006 2.001,-1.903 1.624,-1.699 1.605,-1.713 1.596,-1.719 1.578,-1.733 1.532,-2.279 1.407,-2.73 1.199,-3.089 0.991,-3.448 0.642,-3.819 0.155,-4.21 c -0.599,-0.48 -1.194,-0.724 -1.797,-0.728 -0.603,-0.004 -1.154,0.249 -1.645,0.771 -0.515,0.549 -0.659,1.161 -0.416,1.839 0.243,0.68 0.854,1.454 1.842,2.28 0.46,0.381 0.692,0.569 1.159,0.939 -0.077,0.099 -0.116,0.148 -0.194,0.246 -0.446,0.567 -1.036,0.58 -1.754,0.015 -0.553,-0.434 -1.089,-1.088 -1.585,-1.955 -0.591,0.185 -0.888,0.275 -1.485,0.448 0.492,0.992 1.24,1.897 2.232,2.678 0.949,0.747 1.821,1.132 2.585,1.172 C -0.138,3.534 0.491,3.198 0.993,2.509 2.115,0.97 2.676,0.2 3.797,-1.339 3.299,-1.683 3.052,-1.858 2.56,-2.214"
         style="fill:#000000;fill-opacity:1;fill-rule:nonzero;stroke:none"
         id="path206"
         inkscape:connector-curvature="0" /></g><g
       id="g208"
       transform="translate(364.3971,208.5432)"><path
         d="M 0,0 C 0.488,0.28 0.774,0.606 0.862,0.987 0.949,1.368 0.836,1.873 0.517,2.497 0.476,2.572 0.455,2.609 0.414,2.684 0.038,3.361 -0.354,3.78 -0.767,3.935 -1.179,4.089 -1.669,4.007 -2.225,3.682 -2.68,3.417 -2.934,3.045 -2.986,2.581 -3.039,2.117 -2.873,1.586 -2.497,0.987 -2.121,0.389 -1.718,0.014 -1.294,-0.144 -0.87,-0.303 -0.442,-0.254 0,0 m 0.147,-1.723 c -0.796,-0.467 -1.588,-0.572 -2.404,-0.316 -0.815,0.257 -1.558,0.85 -2.211,1.806 -0.663,0.969 -0.938,1.887 -0.798,2.759 0.141,0.872 0.673,1.601 1.585,2.149 0.957,0.575 1.878,0.687 2.725,0.35 l 0.068,0.037 c -0.365,0.413 -0.653,0.802 -0.858,1.17 -0.45,0.807 -0.676,1.21 -1.126,2.017 0.88,0.493 1.324,0.731 2.218,1.194 C 1.178,5.854 2.094,4.06 3.926,0.471 3.34,0.178 3.048,0.028 2.468,-0.28 2.142,-0.029 1.978,0.096 1.647,0.343 1.615,0.325 1.599,0.316 1.566,0.299 1.477,-0.557 1.008,-1.218 0.147,-1.723"
         style="fill:#000000;fill-opacity:1;fill-rule:nonzero;stroke:none"
         id="path210"
         inkscape:connector-curvature="0" /></g><g
       id="g212"
       transform="translate(372.2861,210.8292)"><path
         d="m 0,0 c -0.785,-0.328 -1.175,-0.499 -1.95,-0.853 -1.22,2.636 -1.831,3.955 -3.051,6.591 0.868,0.408 1.305,0.604 2.184,0.983 C -1.69,4.033 -1.127,2.688 0,0 m -5.885,7.397 c -0.271,0.584 10e-4,1.076 0.827,1.451 0.826,0.375 1.367,0.253 1.616,-0.344 C -3.323,8.219 -3.333,7.953 -3.468,7.706 -3.603,7.46 -3.873,7.249 -4.274,7.068 -5.077,6.706 -5.611,6.808 -5.885,7.397"
         style="fill:#000000;fill-opacity:1;fill-rule:nonzero;stroke:none"
         id="path214"
         inkscape:connector-curvature="0" /></g><g
       id="g216"
       transform="translate(377.4704,216.3256)"><path
         d="m 0,0 c -0.328,-0.113 -0.491,-0.171 -0.818,-0.288 -0.614,-0.218 -1.04,-0.477 -1.278,-0.764 -0.238,-0.286 -0.291,-0.617 -0.163,-0.989 0.183,-0.534 0.604,-0.681 1.268,-0.458 0.476,0.159 0.817,0.409 1.028,0.757 0.212,0.348 0.258,0.735 0.133,1.16 C 0.102,-0.349 0.068,-0.233 0,0 m 1.557,-3.097 c -0.266,0.34 -0.4,0.509 -0.67,0.846 -0.022,-0.007 -0.032,-0.01 -0.054,-0.017 -0.228,-0.515 -0.494,-0.908 -0.805,-1.18 -0.31,-0.274 -0.751,-0.505 -1.323,-0.703 -0.703,-0.243 -1.32,-0.256 -1.864,-0.033 -0.544,0.223 -0.954,0.675 -1.22,1.366 -0.279,0.724 -0.203,1.37 0.245,1.935 0.449,0.565 1.261,1.086 2.436,1.523 0.545,0.2 0.819,0.297 1.368,0.486 C -0.366,1.25 -0.384,1.312 -0.421,1.436 -0.63,2.153 -1.16,2.382 -2.002,2.099 -2.65,1.881 -3.357,1.446 -4.098,0.792 c -0.469,0.401 -0.707,0.6 -1.187,0.992 0.779,0.774 1.762,1.371 2.925,1.763 1.114,0.375 2.037,0.43 2.743,0.19 C 1.09,3.496 1.545,2.939 1.762,2.085 2.248,0.174 2.491,-0.782 2.977,-2.693 2.407,-2.848 2.123,-2.929 1.557,-3.097"
         style="fill:#000000;fill-opacity:1;fill-rule:nonzero;stroke:none"
         id="path218"
         inkscape:connector-curvature="0" /></g><g
       id="g220"
       transform="translate(389.5659,215.4502)"><path
         d="M 0,0 C -0.835,-0.107 -1.252,-0.168 -2.084,-0.301 -2.306,1.438 -2.417,2.308 -2.638,4.047 -2.707,4.583 -2.863,4.968 -3.113,5.199 -3.362,5.432 -3.723,5.505 -4.192,5.417 -4.83,5.297 -5.261,5.014 -5.478,4.581 -5.694,4.147 -5.722,3.497 -5.567,2.63 c 0.246,-1.382 0.369,-2.073 0.614,-3.455 -0.826,-0.169 -1.238,-0.26 -2.059,-0.455 -0.625,2.904 -0.938,4.357 -1.563,7.261 0.705,0.176 1.059,0.259 1.768,0.417 0.194,-0.346 0.291,-0.52 0.482,-0.868 0.051,0.011 0.077,0.016 0.128,0.027 0.191,0.41 0.5,0.754 0.925,1.028 0.424,0.275 0.931,0.467 1.515,0.573 0.998,0.18 1.789,0.064 2.351,-0.331 C -0.844,6.433 -0.529,5.784 -0.448,4.894 -0.269,2.936 -0.179,1.958 0,0"
         style="fill:#000000;fill-opacity:1;fill-rule:nonzero;stroke:none"
         id="path222"
         inkscape:connector-curvature="0" /></g><g
       id="g224"
       transform="translate(403.7942,215.7797)"><path
         d="M 0,0 C -0.849,0.069 -1.274,0.097 -2.125,0.14 -1.931,1.879 -1.834,2.749 -1.64,4.488 -3.35,4.564 -4.207,4.577 -5.919,4.552 -5.997,2.821 -6.036,1.955 -6.114,0.224 -6.968,0.217 -7.396,0.206 -8.25,0.172 c 0.038,3.995 0.056,5.993 0.094,9.987 0.997,0.053 1.496,0.071 2.494,0.092 -0.071,-1.572 -0.106,-2.358 -0.177,-3.929 1.759,0.029 2.639,0.017 4.397,-0.056 0.176,1.578 0.264,2.368 0.44,3.947 0.995,-0.038 1.493,-0.064 2.486,-0.132 C 0.89,6.048 0.594,4.032 0,0"
         style="fill:#000000;fill-opacity:1;fill-rule:nonzero;stroke:none"
         id="path226"
         inkscape:connector-curvature="0" /></g><g
       id="g228"
       transform="translate(410.8523,221.4357)"><path
         d="M 0,0 C -0.488,0.076 -0.904,-0.01 -1.242,-0.253 -1.58,-0.496 -1.824,-0.875 -1.976,-1.389 -0.713,-1.561 -0.084,-1.66 1.171,-1.887 1.3,-1.368 1.261,-0.943 1.05,-0.613 0.839,-0.282 0.487,-0.076 0,0 m -1.274,-6.523 c -1.221,0.207 -2.1,0.679 -2.669,1.451 -0.568,0.772 -0.759,1.778 -0.534,3.033 0.232,1.29 0.758,2.256 1.61,2.879 0.852,0.622 1.936,0.851 3.212,0.654 C 1.564,1.306 2.43,0.822 2.919,0.077 3.409,-0.669 3.475,-1.588 3.148,-2.672 3.026,-3.077 2.965,-3.279 2.843,-3.683 c -2.055,0.438 -3.091,0.619 -5.171,0.904 -0.105,-0.6 -0.022,-1.09 0.241,-1.475 0.263,-0.385 0.692,-0.623 1.295,-0.725 0.47,-0.08 0.924,-0.112 1.368,-0.095 0.443,0.017 0.921,0.084 1.44,0.199 C 1.826,-5.52 1.731,-5.843 1.542,-6.489 1.125,-6.595 0.7,-6.652 0.265,-6.662 c -0.434,-0.01 -0.946,0.038 -1.539,0.139"
         style="fill:#000000;fill-opacity:1;fill-rule:nonzero;stroke:none"
         id="path230"
         inkscape:connector-curvature="0" /></g><g
       id="g232"
       transform="translate(419.9172,216.3912)"><path
         d="M 0,0 C -0.335,0.091 -0.503,0.136 -0.839,0.223 -1.468,0.39 -1.976,0.41 -2.354,0.295 -2.731,0.18 -2.992,-0.083 -3.139,-0.489 c -0.21,-0.583 0.021,-0.961 0.693,-1.153 0.48,-0.137 0.916,-0.115 1.314,0.07 0.4,0.186 0.694,0.503 0.879,0.954 C -0.152,-0.371 -0.101,-0.247 0,0 m -0.833,-3.667 c 0.017,0.458 0.023,0.687 0.034,1.144 -0.021,0.007 -0.032,0.011 -0.054,0.017 -0.524,-0.324 -0.996,-0.518 -1.422,-0.579 -0.426,-0.06 -0.927,-0.008 -1.507,0.152 -0.713,0.196 -1.204,0.548 -1.481,1.067 -0.277,0.519 -0.298,1.165 -0.049,1.936 0.261,0.809 0.747,1.338 1.471,1.576 0.726,0.238 1.708,0.222 2.925,-0.08 C -0.352,1.423 -0.071,1.349 0.49,1.195 0.544,1.327 0.571,1.393 0.625,1.524 0.937,2.284 0.669,2.799 -0.184,3.042 -0.84,3.23 -1.687,3.259 -2.701,3.115 -2.804,3.748 -2.858,4.065 -2.975,4.698 -1.851,4.925 -0.682,4.876 0.497,4.54 1.628,4.219 2.399,3.727 2.801,3.099 3.202,2.471 3.192,1.709 2.794,0.822 1.902,-1.162 1.456,-2.154 0.564,-4.138 c -0.557,0.195 -0.837,0.289 -1.397,0.471"
         style="fill:#000000;fill-opacity:1;fill-rule:nonzero;stroke:none"
         id="path234"
         inkscape:connector-curvature="0" /></g><g
       id="g236"
       transform="translate(426.3428,211.6915)"><path
         d="M 0,0 C 0.348,-0.154 0.806,-0.266 1.378,-0.343 1.037,-0.926 0.866,-1.218 0.525,-1.801 c -0.608,0.008 -1.256,0.167 -1.96,0.473 -0.775,0.337 -1.237,0.769 -1.394,1.318 -0.156,0.55 -0.039,1.231 0.363,2.042 0.705,1.419 1.057,2.129 1.761,3.548 -0.418,0.16 -0.627,0.238 -1.047,0.39 0.163,0.342 0.244,0.512 0.406,0.853 0.619,0.093 0.93,0.136 1.557,0.216 C 0.779,7.562 1.066,7.821 1.646,8.337 2.23,8.109 2.522,7.992 3.102,7.752 2.768,7.132 2.601,6.822 2.268,6.203 3.176,5.825 3.627,5.628 4.523,5.219 4.18,4.631 4.008,4.337 3.665,3.748 2.791,4.149 2.351,4.342 1.465,4.713 0.71,3.309 0.332,2.607 -0.424,1.204 -0.576,0.922 -0.607,0.68 -0.521,0.476 -0.434,0.273 -0.261,0.115 0,0"
         style="fill:#000000;fill-opacity:1;fill-rule:nonzero;stroke:none"
         id="path238"
         inkscape:connector-curvature="0" /></g><g
       id="g240"
       transform="translate(434.4269,205.4177)"><path
         d="M 0,0 C -0.719,0.468 -1.082,0.695 -1.813,1.137 L 1.116,5.13 C 1.839,6.116 1.803,6.851 0.994,7.308 0.419,7.633 -0.125,7.68 -0.625,7.456 -1.125,7.232 -1.642,6.71 -2.183,5.896 -3.06,4.579 -3.498,3.921 -4.374,2.603 -5.123,3.009 -5.501,3.206 -6.261,3.587 -3.814,7.543 -2.59,9.521 -0.143,13.477 0.763,13.04 1.214,12.813 2.107,12.345 1.579,11.551 1.315,11.155 0.787,10.361 0.684,10.206 0.426,9.851 0.013,9.297 -0.156,9.082 -0.24,8.974 -0.409,8.759 -0.365,8.736 -0.343,8.724 -0.299,8.701 0.624,9.136 1.616,9.072 2.636,8.486 3.54,7.967 4.059,7.336 4.187,6.627 4.315,5.917 4.058,5.167 3.436,4.375 2.062,2.625 1.374,1.75 0,0"
         style="fill:#000000;fill-opacity:1;fill-rule:nonzero;stroke:none"
         id="path242"
         inkscape:connector-curvature="0" /></g><g
       id="g244"
       transform="translate(449.8665,205.4562)"><path
         d="M 0,0 C -0.716,0.642 -1.531,0.888 -2.417,0.743 -3.303,0.598 -4.172,0.084 -5.038,-0.778 -6.84,-2.574 -7.044,-4.034 -5.71,-5.255 c 0.56,-0.512 1.378,-1.005 2.466,-1.515 -0.628,-0.533 -0.942,-0.799 -1.57,-1.332 -0.92,0.362 -1.759,0.899 -2.541,1.614 -1.125,1.028 -1.648,2.119 -1.584,3.357 0.064,1.236 0.707,2.543 1.987,3.909 0.806,0.86 1.682,1.483 2.646,1.85 0.965,0.368 1.954,0.453 2.957,0.241 C -0.346,2.657 0.612,2.159 1.492,1.374 2.389,0.574 3.075,-0.438 3.52,-1.638 2.667,-1.914 2.243,-2.056 1.401,-2.347 1.234,-1.9 1.041,-1.47 0.821,-1.059 0.602,-0.648 0.327,-0.293 0,0"
         style="fill:#000000;fill-opacity:1;fill-rule:nonzero;stroke:none"
         id="path246"
         inkscape:connector-curvature="0" /></g><g
       id="g248"
       transform="translate(452.59,194.5186)"><path
         d="m 0,0 c -0.246,0.279 -0.369,0.418 -0.618,0.693 -0.465,0.519 -0.909,0.83 -1.318,0.941 -0.41,0.112 -0.808,0.02 -1.191,-0.269 -0.549,-0.415 -0.575,-0.896 -0.091,-1.459 0.347,-0.404 0.752,-0.636 1.226,-0.697 0.474,-0.059 0.936,0.061 1.382,0.369 C -0.366,-0.253 -0.244,-0.169 0,0 m -3.02,-2.896 c 0.298,0.412 0.446,0.62 0.739,1.036 -0.015,0.019 -0.023,0.028 -0.038,0.047 -0.672,0.005 -1.218,0.101 -1.638,0.291 -0.421,0.191 -0.838,0.529 -1.259,1.008 -0.518,0.59 -0.738,1.192 -0.665,1.827 0.074,0.635 0.454,1.238 1.154,1.805 0.735,0.594 1.496,0.805 2.292,0.61 C -1.637,3.533 -0.767,2.957 0.143,1.975 0.562,1.517 0.769,1.286 1.181,0.817 1.311,0.907 1.376,0.952 1.506,1.042 2.257,1.561 2.333,2.192 1.715,2.911 1.238,3.464 0.494,3.978 -0.506,4.427 -0.206,5.068 -0.059,5.39 0.228,6.038 1.376,5.606 2.397,4.89 3.254,3.896 4.075,2.945 4.469,2.039 4.445,1.223 4.421,0.407 3.941,-0.292 3.032,-0.877 0.999,-2.186 -0.018,-2.84 -2.051,-4.149 c -0.383,0.507 -0.576,0.758 -0.969,1.253"
         style="fill:#000000;fill-opacity:1;fill-rule:nonzero;stroke:none"
         id="path250"
         inkscape:connector-curvature="0" /></g><g
       id="g252"
       transform="translate(462.9007,188.7313)"><path
         d="m 0,0 c 0.19,-0.308 0.323,-0.577 0.401,-0.805 -0.892,-0.349 -1.338,-0.525 -2.227,-0.877 -0.057,0.204 -0.165,0.434 -0.322,0.69 -0.431,0.703 -0.958,1.147 -1.567,1.333 -0.609,0.185 -1.235,0.091 -1.883,-0.265 -1.638,-0.903 -2.457,-1.355 -4.095,-2.257 -0.504,0.779 -0.762,1.162 -1.288,1.915 3.137,1.869 4.706,2.804 7.843,4.673 C -2.677,3.765 -2.451,3.44 -2.004,2.782 -2.455,2.352 -2.681,2.138 -3.137,1.711 -3.109,1.669 -3.094,1.648 -3.066,1.605 -2.453,1.611 -1.868,1.477 -1.313,1.196 -0.759,0.917 -0.317,0.516 0,0"
         style="fill:#000000;fill-opacity:1;fill-rule:nonzero;stroke:none"
         id="path254"
         inkscape:connector-curvature="0" /></g><g
       id="g256"
       transform="translate(464.364,182.4096)"><path
         d="m 0,0 c -0.255,0.507 -0.619,0.835 -1.083,0.982 -0.462,0.147 -0.993,0.112 -1.592,-0.1 0.682,-1.284 1.01,-1.94 1.64,-3.279 0.589,0.237 0.975,0.566 1.152,0.992 C 0.295,-0.98 0.256,-0.509 0,0 m -7.176,-3.289 c -0.618,1.281 -0.746,2.412 -0.378,3.459 0.367,1.047 1.214,1.908 2.577,2.56 1.402,0.671 2.686,0.854 3.86,0.498 C 0.056,2.871 1.007,2.03 1.68,0.703 2.323,-0.565 2.444,-1.72 2.055,-2.7 1.666,-3.679 0.82,-4.379 -0.454,-4.815 c -0.475,-0.163 -0.712,-0.244 -1.188,-0.407 -0.972,2.267 -1.496,3.363 -2.615,5.478 -0.651,-0.315 -1.069,-0.727 -1.266,-1.234 -0.196,-0.507 -0.14,-1.068 0.167,-1.702 0.239,-0.492 0.514,-0.941 0.83,-1.347 0.316,-0.407 0.704,-0.815 1.167,-1.228 -0.755,-0.265 -1.132,-0.397 -1.887,-0.662 -0.385,0.322 -0.728,0.685 -1.03,1.089 -0.303,0.404 -0.6,0.918 -0.9,1.539"
         style="fill:#000000;fill-opacity:1;fill-rule:nonzero;stroke:none"
         id="path258"
         inkscape:connector-curvature="0" /></g><g
       id="g260"
       transform="translate(339.3841,130.6248)"><path
         d="m 0,0 c -2.126,-0.836 -3.189,-1.254 -5.315,-2.089 -0.607,-0.239 -1.211,-0.309 -1.815,-0.199 -0.606,0.109 -1.171,0.395 -1.69,0.864 -0.52,0.468 -0.963,1.096 -1.32,1.88 -0.538,1.183 -0.654,2.212 -0.362,3.038 0.291,0.824 0.941,1.362 1.93,1.625 2.225,0.591 3.338,0.886 5.563,1.477 C -2.728,5.888 -2.584,5.537 -2.288,4.844 -4.377,4.221 -5.422,3.91 -7.512,3.287 -8.169,3.092 -8.593,2.808 -8.777,2.433 c -0.185,-0.374 -0.134,-0.89 0.16,-1.534 0.284,-0.623 0.649,-1.018 1.082,-1.185 0.434,-0.168 0.974,-0.132 1.62,0.101 2.035,0.731 3.053,1.097 5.088,1.829 C -0.504,0.979 -0.338,0.65 0,0"
         style="fill:#000000;fill-opacity:1;fill-rule:nonzero;stroke:none"
         id="path262"
         inkscape:connector-curvature="0" /></g><g
       id="g264"
       transform="translate(335.8098,119.6121)"><path
         d="m 0,0 c -0.447,0.658 -0.667,0.99 -1.1,1.665 1.39,0.712 2.085,1.069 3.474,1.781 0.43,0.22 0.704,0.46 0.824,0.716 C 3.32,4.42 3.279,4.708 3.078,5.033 2.803,5.476 2.454,5.724 2.025,5.78 1.595,5.836 1.019,5.701 0.302,5.368 -0.844,4.836 -1.416,4.57 -2.562,4.038 -2.974,4.736 -3.177,5.089 -3.574,5.803 -1.102,6.866 0.135,7.397 2.607,8.46 2.882,7.966 3.022,7.721 3.305,7.236 3.042,7.009 2.911,6.894 2.65,6.665 2.671,6.629 2.682,6.611 2.703,6.575 3.102,6.533 3.469,6.393 3.804,6.158 4.139,5.924 4.426,5.616 4.667,5.234 5.08,4.58 5.214,3.997 5.068,3.465 4.921,2.932 4.505,2.473 3.811,2.092 2.286,1.255 1.524,0.837 0,0"
         style="fill:#000000;fill-opacity:1;fill-rule:nonzero;stroke:none"
         id="path266"
         inkscape:connector-curvature="0" /></g><g
       id="g268"
       transform="translate(338.1492,116.3612)"><path
         d="M 0,0 C -0.475,0.624 -0.709,0.94 -1.17,1.58 1.124,2.927 2.271,3.6 4.565,4.947 4.982,4.368 5.194,4.082 5.624,3.518 3.375,2.11 2.25,1.407 0,0 M 6.004,5.878 C 6.514,6.177 6.949,6.072 7.318,5.575 7.687,5.077 7.626,4.677 7.127,4.364 6.888,4.214 6.656,4.161 6.428,4.204 6.199,4.248 5.989,4.398 5.799,4.654 5.419,5.165 5.49,5.577 6.004,5.878"
         style="fill:#000000;fill-opacity:1;fill-rule:nonzero;stroke:none"
         id="path270"
         inkscape:connector-curvature="0" /></g><g
       id="g272"
       transform="translate(340.4911,113.4421)"><path
         d="M 0,0 C 1.463,2.344 2.234,3.486 3.851,5.701 4.307,5.119 4.539,4.833 5.008,4.267 4.085,3.031 3.634,2.403 2.755,1.129 2.464,0.741 2.159,0.407 1.839,0.13 1.849,0.119 1.854,0.114 1.864,0.102 2.183,0.308 2.608,0.502 3.137,0.689 4.694,1.183 5.465,1.443 6.989,1.989 7.478,1.451 7.726,1.186 8.228,0.664 5.514,-0.289 4.127,-0.723 1.299,-1.495 0.773,-0.906 0.513,-0.607 0,0"
         style="fill:#000000;fill-opacity:1;fill-rule:nonzero;stroke:none"
         id="path274"
         inkscape:connector-curvature="0" /></g><g
       id="g276"
       transform="translate(350.3714,110.8714)"><path
         d="m 0,0 c -0.27,0.252 -0.569,0.373 -0.902,0.36 -0.333,-0.012 -0.677,-0.15 -1.032,-0.418 0.72,-0.698 1.086,-1.04 1.826,-1.707 0.315,0.306 0.477,0.614 0.492,0.924 C 0.398,-0.531 0.27,-0.252 0,0 m -3.89,-3.875 c -0.818,0.76 -1.228,1.569 -1.226,2.386 0.003,0.815 0.429,1.561 1.254,2.239 0.849,0.697 1.699,1.038 2.537,1.045 C -0.488,1.804 0.257,1.491 0.934,0.859 1.581,0.254 1.9,-0.381 1.896,-1.072 1.892,-1.763 1.57,-2.438 0.913,-3.088 0.667,-3.33 0.545,-3.452 0.3,-3.694 c -1.293,1.109 -1.927,1.686 -3.161,2.885 -0.37,-0.346 -0.558,-0.715 -0.562,-1.104 -0.003,-0.389 0.189,-0.769 0.576,-1.127 0.301,-0.279 0.618,-0.511 0.949,-0.698 0.33,-0.186 0.708,-0.347 1.132,-0.479 l -0.983,-0.962 c -0.359,0.106 -0.706,0.259 -1.04,0.456 -0.334,0.197 -0.703,0.479 -1.101,0.848"
         style="fill:#000000;fill-opacity:1;fill-rule:nonzero;stroke:none"
         id="path278"
         inkscape:connector-curvature="0" /></g><g
       id="g280"
       transform="translate(357.1673,106.8611)"><path
         d="m 0,0 c 0.183,-0.135 0.324,-0.26 0.424,-0.374 -0.47,-0.475 -0.705,-0.712 -1.177,-1.186 -0.088,0.112 -0.212,0.226 -0.374,0.345 -0.443,0.327 -0.88,0.478 -1.32,0.452 -0.441,-0.026 -0.839,-0.228 -1.192,-0.613 l -2.23,-2.435 c -0.589,0.459 -0.881,0.692 -1.459,1.168 1.808,1.869 2.712,2.803 4.521,4.673 0.396,-0.326 0.596,-0.487 0.998,-0.804 -0.219,-0.382 -0.327,-0.574 -0.543,-0.958 0.026,-0.02 0.04,-0.031 0.066,-0.052 0.401,0.149 0.804,0.205 1.213,0.172 C -0.664,0.355 -0.308,0.227 0,0"
         style="fill:#000000;fill-opacity:1;fill-rule:nonzero;stroke:none"
         id="path282"
         inkscape:connector-curvature="0" /></g><g
       id="g284"
       transform="translate(359.4288,99.7661)"><path
         d="m 0,0 c -0.381,-0.538 -0.874,-0.826 -1.483,-0.853 -0.609,-0.028 -1.327,0.217 -2.13,0.749 -0.412,0.272 -0.742,0.534 -0.989,0.781 -0.247,0.246 -0.456,0.505 -0.625,0.774 0.372,0.449 0.558,0.673 0.93,1.122 0.176,-0.312 0.406,-0.629 0.691,-0.948 0.283,-0.321 0.562,-0.568 0.831,-0.745 0.55,-0.363 0.938,-0.391 1.16,-0.096 0.083,0.11 0.114,0.223 0.093,0.339 -0.02,0.116 -0.086,0.274 -0.196,0.477 -0.11,0.201 -0.266,0.458 -0.466,0.766 -0.287,0.44 -0.47,0.799 -0.549,1.07 -0.08,0.27 -0.089,0.524 -0.03,0.761 0.06,0.237 0.198,0.485 0.412,0.743 0.366,0.442 0.827,0.658 1.374,0.659 C -0.429,5.601 0.162,5.387 0.811,4.965 1.428,4.562 1.931,4.046 2.335,3.408 1.869,3.101 1.634,2.948 1.162,2.646 0.975,2.924 0.793,3.17 0.616,3.387 0.44,3.605 0.233,3.789 -0.005,3.944 -0.426,4.219 -0.721,4.25 -0.894,4.03 -0.992,3.905 -1.008,3.752 -0.941,3.57 -0.876,3.389 -0.681,3.054 -0.347,2.57 -0.049,2.139 0.15,1.792 0.246,1.526 0.341,1.26 0.37,1.004 0.332,0.759 0.294,0.512 0.184,0.26 0,0"
         style="fill:#000000;fill-opacity:1;fill-rule:nonzero;stroke:none"
         id="path286"
         inkscape:connector-curvature="0" /></g><g
       id="g288"
       transform="translate(361.1615,96.5761)"><path
         d="M 0,0 C -0.644,0.352 -0.964,0.532 -1.6,0.9 -0.16,3.027 0.56,4.09 2.001,6.216 2.577,5.882 2.867,5.719 3.45,5.401 2.07,3.241 1.38,2.16 0,0 M 2.872,7.625 C 3.193,8.097 3.603,8.186 4.107,7.902 4.612,7.619 4.713,7.242 4.407,6.762 4.261,6.533 4.083,6.39 3.872,6.334 3.66,6.279 3.424,6.323 3.164,6.469 2.645,6.761 2.549,7.149 2.872,7.625"
         style="fill:#000000;fill-opacity:1;fill-rule:nonzero;stroke:none"
         id="path290"
         inkscape:connector-curvature="0" /></g><g
       id="g292"
       transform="translate(366.0074,95.5532)"><path
         d="M 0,0 C 0.284,-0.132 0.657,-0.231 1.118,-0.291 0.878,-0.75 0.759,-0.979 0.519,-1.438 c -0.504,0.013 -1.059,0.16 -1.66,0.444 -0.662,0.314 -1.052,0.707 -1.171,1.159 -0.119,0.451 0.006,0.982 0.367,1.588 0.631,1.06 0.947,1.59 1.578,2.65 -0.289,0.147 -0.433,0.222 -0.721,0.372 0.155,0.252 0.232,0.378 0.386,0.629 0.449,0.028 0.673,0.044 1.117,0.08 C 0.861,5.862 1.082,6.052 1.521,6.435 1.892,6.251 2.078,6.16 2.451,5.982 2.186,5.507 2.053,5.27 1.788,4.795 2.401,4.502 2.709,4.36 3.328,4.082 3.086,3.62 2.965,3.388 2.723,2.926 2.09,3.209 1.776,3.355 1.15,3.654 0.549,2.579 0.248,2.042 -0.353,0.967 -0.474,0.751 -0.499,0.561 -0.427,0.397 -0.356,0.231 -0.213,0.099 0,0"
         style="fill:#000000;fill-opacity:1;fill-rule:nonzero;stroke:none"
         id="path294"
         inkscape:connector-curvature="0" /></g><g
       id="g296"
       transform="translate(369.7214,99.4643)"><path
         d="M 0,0 C 0.662,-0.291 0.995,-0.433 1.664,-0.706 1.469,-2.171 1.385,-2.907 1.243,-4.384 1.21,-4.704 1.126,-5.065 0.988,-5.466 1.001,-5.471 1.007,-5.474 1.02,-5.479 c 0.2,0.342 0.428,0.647 0.682,0.918 1.025,1.137 1.525,1.713 2.503,2.876 0.663,-0.241 0.997,-0.357 1.665,-0.58 -2.005,-2.342 -3.063,-3.485 -5.284,-5.707 -0.512,-0.515 -1.07,-0.833 -1.668,-0.951 -0.599,-0.118 -1.213,-0.05 -1.829,0.209 -0.303,0.127 -0.584,0.282 -0.844,0.465 0.249,0.492 0.374,0.738 0.623,1.231 0.183,-0.133 0.397,-0.252 0.64,-0.355 0.304,-0.128 0.611,-0.154 0.918,-0.077 0.307,0.076 0.606,0.261 0.893,0.555 0.093,0.097 0.139,0.145 0.232,0.243 C -0.368,-3.97 -0.278,-2.638 0,0"
         style="fill:#000000;fill-opacity:1;fill-rule:nonzero;stroke:none"
         id="path298"
         inkscape:connector-curvature="0" /></g><g
       id="g300"
       transform="translate(379.5289,92.7642)"><path
         d="m 0,0 c -0.178,-0.6 -0.212,-1.08 -0.098,-1.438 0.115,-0.357 0.407,-0.594 0.872,-0.704 0.461,-0.109 0.835,-0.029 1.116,0.234 0.281,0.264 0.496,0.701 0.649,1.31 0.153,0.606 0.168,1.08 0.052,1.426 C 2.474,1.173 2.198,1.395 1.76,1.498 1.325,1.6 0.97,1.528 0.691,1.279 0.41,1.028 0.179,0.603 0,0 M 4.268,-0.951 C 4.045,-1.952 3.601,-2.686 2.916,-3.137 2.23,-3.589 1.378,-3.705 0.385,-3.471 c -0.622,0.147 -1.133,0.411 -1.526,0.788 -0.393,0.376 -0.637,0.837 -0.732,1.379 -0.095,0.542 -0.035,1.128 0.171,1.759 0.321,0.982 0.828,1.672 1.501,2.084 0.672,0.412 1.447,0.506 2.35,0.294 C 2.709,2.701 3.171,2.465 3.541,2.117 3.911,1.769 4.161,1.334 4.288,0.807 4.415,0.281 4.412,-0.305 4.268,-0.951"
         style="fill:#000000;fill-opacity:1;fill-rule:nonzero;stroke:none"
         id="path302"
         inkscape:connector-curvature="0" /></g><g
       id="g304"
       transform="translate(388.9142,92.8776)"><path
         d="m 0,0 c -0.575,0.071 -0.862,0.109 -1.436,0.192 -0.328,-1.976 -0.493,-2.964 -0.822,-4.939 -0.716,0.103 -1.074,0.159 -1.788,0.278 0.383,1.967 0.575,2.951 0.957,4.918 -0.363,0.061 -0.545,0.093 -0.908,0.158 0.068,0.325 0.102,0.487 0.17,0.811 0.396,0.116 0.593,0.176 0.985,0.297 0.035,0.182 0.053,0.272 0.088,0.454 0.137,0.704 0.4,1.191 0.781,1.464 0.382,0.273 0.919,0.356 1.623,0.26 C 0.186,3.82 0.651,3.674 1.049,3.451 0.823,2.97 0.708,2.729 0.474,2.25 0.168,2.396 -0.12,2.487 -0.391,2.523 -0.617,2.554 -0.792,2.506 -0.916,2.378 -1.041,2.25 -1.122,2.074 -1.159,1.853 -1.185,1.697 -1.198,1.619 -1.224,1.463 -0.663,1.383 -0.381,1.345 0.182,1.276 0.109,0.765 0.073,0.51 0,0"
         style="fill:#000000;fill-opacity:1;fill-rule:nonzero;stroke:none"
         id="path306"
         inkscape:connector-curvature="0" /></g><g
       id="g308"
       transform="translate(394.33,87.4111)"><path
         d="m 0,0 c -0.723,0.032 -1.084,0.052 -1.806,0.1 0.25,3.28 0.375,4.921 0.624,8.201 C 0.555,8.185 1.426,8.154 3.167,8.149 3.166,7.578 3.166,7.292 3.165,6.721 2.031,6.725 1.464,6.738 0.33,6.787 0.289,5.94 0.268,5.516 0.227,4.669 1.32,4.621 1.866,4.608 2.96,4.601 2.957,4.032 2.956,3.747 2.954,3.178 1.835,3.185 1.276,3.199 0.158,3.248 0.095,1.949 0.063,1.299 0,0"
         style="fill:#000000;fill-opacity:1;fill-rule:nonzero;stroke:none"
         id="path310"
         inkscape:connector-curvature="0" /></g><g
       id="g312"
       transform="translate(402.2368,93.8893)"><path
         d="m 0,0 c 0.221,0.014 0.406,0.009 0.555,-0.013 0.007,-0.646 0.01,-0.969 0.014,-1.614 -0.139,0.028 -0.304,0.035 -0.499,0.023 -0.534,-0.034 -0.94,-0.195 -1.225,-0.489 -0.284,-0.296 -0.417,-0.694 -0.392,-1.201 0.064,-1.279 0.096,-1.919 0.16,-3.198 -0.723,-0.029 -1.084,-0.039 -1.807,-0.051 -0.057,2.516 -0.085,3.773 -0.142,6.289 0.496,0.008 0.743,0.015 1.239,0.032 0.115,-0.42 0.173,-0.63 0.291,-1.049 0.033,10e-4 0.049,0.002 0.082,0.003 0.172,0.361 0.41,0.654 0.715,0.886 C -0.705,-0.151 -0.371,-0.024 0,0"
         style="fill:#000000;fill-opacity:1;fill-rule:nonzero;stroke:none"
         id="path314"
         inkscape:connector-curvature="0" /></g><g
       id="g316"
       transform="translate(406.294,93.0358)"><path
         d="m 0,0 c -0.351,-0.042 -0.61,-0.187 -0.781,-0.438 -0.17,-0.251 -0.245,-0.588 -0.222,-1.012 0.951,0.098 1.426,0.155 2.374,0.285 C 1.294,-0.747 1.133,-0.439 0.89,-0.237 0.647,-0.036 0.351,0.042 0,0 m 1.013,-5.226 c -1.061,-0.131 -1.932,0.065 -2.585,0.568 -0.653,0.501 -1.018,1.27 -1.116,2.29 -0.101,1.05 0.082,1.882 0.527,2.501 0.444,0.618 1.096,0.972 1.976,1.077 C 0.655,1.311 1.347,1.153 1.908,0.724 2.469,0.295 2.842,-0.356 3.01,-1.237 3.072,-1.565 3.103,-1.73 3.166,-2.058 1.545,-2.316 0.731,-2.422 -0.901,-2.59 c 0.079,-0.483 0.272,-0.846 0.584,-1.089 0.312,-0.241 0.722,-0.334 1.223,-0.272 0.389,0.049 0.752,0.137 1.085,0.263 0.332,0.127 0.671,0.303 1.013,0.531 0.097,-0.524 0.145,-0.786 0.242,-1.31 C 2.962,-4.664 2.646,-4.823 2.302,-4.945 1.959,-5.068 1.528,-5.163 1.013,-5.226"
         style="fill:#000000;fill-opacity:1;fill-rule:nonzero;stroke:none"
         id="path318"
         inkscape:connector-curvature="0" /></g><g
       id="g320"
       transform="translate(413.7932,90.2949)"><path
         d="M 0,0 C 0.444,0.096 0.736,0.294 0.874,0.589 1.012,0.884 1.006,1.33 0.859,1.927 0.839,1.999 0.829,2.035 0.809,2.107 0.626,2.762 0.394,3.207 0.117,3.446 -0.16,3.684 -0.52,3.752 -0.966,3.656 -1.332,3.577 -1.576,3.361 -1.704,3.003 -1.832,2.645 -1.827,2.162 -1.684,1.558 -1.541,0.952 -1.328,0.518 -1.039,0.26 -0.751,0 -0.403,-0.087 0,0 m -0.282,-1.464 c -0.765,-0.158 -1.435,0.01 -1.99,0.494 -0.555,0.485 -0.929,1.231 -1.136,2.23 -0.209,1.014 -0.163,1.841 0.123,2.48 C -3,4.38 -2.512,4.766 -1.809,4.912 -1.07,5.066 -0.431,4.895 0.128,4.39 0.149,4.395 0.159,4.397 0.18,4.402 -0.028,4.837 -0.18,5.234 -0.279,5.591 -0.495,6.373 -0.603,6.764 -0.819,7.546 -0.204,7.689 0.102,7.764 0.714,7.922 1.747,4.546 2.264,2.858 3.298,-0.517 2.759,-0.656 2.489,-0.723 1.948,-0.852 1.722,-0.568 1.609,-0.426 1.387,-0.141 1.357,-0.148 1.342,-0.152 1.312,-0.159 1.082,-0.852 0.546,-1.293 -0.282,-1.464"
         style="fill:#000000;fill-opacity:1;fill-rule:nonzero;stroke:none"
         id="path322"
         inkscape:connector-curvature="0" /></g><g
       id="g324"
       transform="translate(419.6772,95.9745)"><path
         d="m 0,0 c -0.338,-0.109 -0.562,-0.301 -0.674,-0.581 -0.112,-0.279 -0.112,-0.623 0.006,-1.035 0.918,0.281 1.374,0.429 2.283,0.74 C 1.447,-0.481 1.219,-0.21 0.933,-0.06 0.647,0.091 0.338,0.109 0,0 m 2.166,-4.927 c -1.02,-0.334 -1.924,-0.31 -2.681,0.057 -0.756,0.366 -1.288,1.049 -1.612,2.03 -0.334,1.009 -0.339,1.86 -0.038,2.552 0.3,0.692 0.866,1.164 1.712,1.439 0.809,0.262 1.529,0.241 2.18,-0.07 0.651,-0.311 1.165,-0.877 1.527,-1.708 0.135,-0.309 0.202,-0.464 0.337,-0.774 -1.548,-0.57 -2.33,-0.832 -3.904,-1.312 0.185,-0.458 0.458,-0.777 0.82,-0.954 0.362,-0.176 0.788,-0.188 1.27,-0.03 0.374,0.123 0.713,0.28 1.014,0.469 C 3.092,-3.039 3.388,-2.8 3.676,-2.51 3.888,-3.005 3.995,-3.253 4.207,-3.748 3.97,-3.996 3.692,-4.213 3.379,-4.4 3.067,-4.587 2.661,-4.764 2.166,-4.927"
         style="fill:#000000;fill-opacity:1;fill-rule:nonzero;stroke:none"
         id="path326"
         inkscape:connector-curvature="0" /></g><g
       id="g328"
       transform="translate(426.1295,99.7859)"><path
         d="M 0,0 C 0.204,0.092 0.381,0.153 0.532,0.185 0.8,-0.413 0.933,-0.713 1.199,-1.312 1.055,-1.335 0.895,-1.387 0.716,-1.468 0.223,-1.689 -0.097,-1.982 -0.247,-2.357 -0.397,-2.732 -0.361,-3.15 -0.132,-3.612 0.446,-4.78 0.735,-5.364 1.314,-6.531 0.641,-6.813 0.303,-6.95 -0.375,-7.214 c -1.072,2.32 -1.608,3.48 -2.681,5.8 0.465,0.182 0.697,0.275 1.159,0.466 0.279,-0.35 0.419,-0.525 0.7,-0.873 0.031,0.012 0.046,0.019 0.077,0.031 0.016,0.396 0.123,0.754 0.318,1.077 C -0.608,-0.391 -0.342,-0.154 0,0"
         style="fill:#000000;fill-opacity:1;fill-rule:nonzero;stroke:none"
         id="path330"
         inkscape:connector-curvature="0" /></g><g
       id="g332"
       transform="translate(432.4965,95.5964)"><path
         d="m 0,0 c -0.652,-0.333 -0.98,-0.495 -1.64,-0.811 -1.266,2.237 -1.9,3.355 -3.166,5.592 0.597,0.286 0.893,0.433 1.484,0.735 C -1.993,3.309 -1.329,2.206 0,0 m -5.687,6.197 c -0.28,0.497 -0.16,0.869 0.356,1.124 0.516,0.256 0.92,0.144 1.216,-0.346 C -3.974,6.741 -3.93,6.527 -3.984,6.33 -4.038,6.133 -4.198,5.967 -4.464,5.836 -4.995,5.573 -5.404,5.696 -5.687,6.197"
         style="fill:#000000;fill-opacity:1;fill-rule:nonzero;stroke:none"
         id="path334"
         inkscape:connector-curvature="0" /></g><g
       id="g336"
       transform="translate(433.7646,100.2626)"><path
         d="M 0,0 C 0.043,0.477 0.062,0.715 0.095,1.19 0.253,2.194 0.32,2.695 0.433,3.694 1.071,4.093 1.388,4.298 2.017,4.716 1.903,3.289 1.823,2.571 1.618,1.129 3.397,0.503 4.308,0.216 6.171,-0.305 5.461,-0.78 5.103,-1.011 4.382,-1.464 3.096,-1.033 2.463,-0.805 1.219,-0.324 1.097,-0.678 1.034,-0.855 0.905,-1.209 1.358,-1.875 1.584,-2.208 2.037,-2.873 1.4,-3.24 1.079,-3.42 0.434,-3.77 c -1.939,3.023 -2.909,4.535 -4.849,7.559 0.559,0.304 0.837,0.46 1.39,0.779 0.903,-1.328 1.354,-1.992 2.257,-3.319 0.3,-0.504 0.45,-0.756 0.748,-1.261 C -0.012,-0.007 -0.008,-0.005 0,0"
         style="fill:#000000;fill-opacity:1;fill-rule:nonzero;stroke:none"
         id="path338"
         inkscape:connector-curvature="0" /></g><g
       id="g340"
       transform="translate(441.8571,106.9455)"><path
         d="m 0,0 c 0.182,0.146 0.273,0.22 0.454,0.368 0.424,0.345 0.66,0.688 0.71,1.02 0.05,0.331 -0.078,0.645 -0.38,0.941 -0.304,0.3 -0.614,0.449 -0.927,0.45 -0.311,0 -0.645,-0.148 -1.006,-0.444 C -1.389,2.137 -1.509,2.039 -1.751,1.845 -1.051,1.107 -0.701,0.738 0,0 M 2.064,3.542 C 2.743,2.911 3.056,2.237 2.98,1.519 2.904,0.801 2.454,0.086 1.632,-0.589 1.39,-0.787 1.269,-0.885 1.025,-1.08 1.865,-1.965 2.284,-2.407 3.124,-3.291 2.531,-3.767 2.231,-4 1.628,-4.458 c -2.286,2.544 -3.428,3.816 -5.714,6.36 0.796,0.605 1.189,0.916 1.965,1.555 0.736,0.607 1.443,0.927 2.146,0.952 C 0.729,4.432 1.411,4.15 2.064,3.542"
         style="fill:#000000;fill-opacity:1;fill-rule:nonzero;stroke:none"
         id="path342"
         inkscape:connector-curvature="0" /></g><g
       id="g344"
       transform="translate(449.743,112.1508)"><path
         d="m 0,0 c -0.188,-0.211 -0.282,-0.315 -0.472,-0.524 -0.357,-0.391 -0.562,-0.73 -0.613,-1.025 -0.052,-0.295 0.056,-0.557 0.327,-0.788 0.388,-0.33 0.797,-0.285 1.223,0.146 0.306,0.308 0.455,0.633 0.446,0.972 C 0.903,-0.881 0.74,-0.588 0.427,-0.339 0.256,-0.204 0.171,-0.136 0,0 M 2.795,-1.503 C 2.409,-1.388 2.217,-1.33 1.833,-1.212 1.819,-1.227 1.813,-1.234 1.799,-1.248 1.881,-1.718 1.861,-2.122 1.738,-2.459 1.616,-2.796 1.361,-3.159 0.974,-3.543 0.497,-4.015 -0.021,-4.26 -0.567,-4.282 c -0.549,-0.021 -1.069,0.197 -1.565,0.645 -0.521,0.469 -0.722,0.984 -0.617,1.541 0.104,0.557 0.492,1.186 1.155,1.91 0.309,0.334 0.462,0.503 0.766,0.844 -0.091,0.072 -0.136,0.109 -0.227,0.181 -0.527,0.418 -1.02,0.383 -1.488,-0.095 -0.36,-0.368 -0.663,-0.896 -0.924,-1.591 -0.536,0.158 -0.802,0.238 -1.333,0.404 0.23,0.765 0.65,1.453 1.269,2.085 0.592,0.606 1.188,0.961 1.807,1.062 C -1.105,2.805 -0.477,2.625 0.158,2.148 1.576,1.082 2.285,0.55 3.703,-0.516 3.343,-0.915 3.161,-1.112 2.795,-1.503"
         style="fill:#000000;fill-opacity:1;fill-rule:nonzero;stroke:none"
         id="path346"
         inkscape:connector-curvature="0" /></g><g
       id="g348"
       transform="translate(455.537,116.1719)"><path
         d="M 0,0 C 0.207,0.263 0.396,0.619 0.561,1.066 1.023,0.779 1.255,0.635 1.717,0.347 1.596,-0.149 1.315,-0.679 0.872,-1.232 0.385,-1.843 -0.132,-2.174 -0.659,-2.234 c -0.527,-0.06 -1.092,0.126 -1.695,0.55 -1.053,0.741 -1.579,1.111 -2.631,1.852 -0.222,-0.261 -0.334,-0.39 -0.558,-0.648 -0.249,0.18 -0.374,0.27 -0.623,0.45 0.058,0.436 0.085,0.654 0.135,1.088 -0.331,0.478 -0.498,0.715 -0.836,1.188 0.281,0.337 0.42,0.507 0.696,0.85 0.475,-0.315 0.713,-0.472 1.187,-0.787 0.454,0.563 0.678,0.849 1.119,1.429 0.466,-0.291 0.699,-0.436 1.166,-0.727 -0.451,-0.592 -0.679,-0.884 -1.143,-1.46 1.076,-0.713 1.613,-1.07 2.689,-1.784 0.216,-0.143 0.423,-0.19 0.621,-0.139 C -0.333,-0.321 -0.155,-0.198 0,0"
         style="fill:#000000;fill-opacity:1;fill-rule:nonzero;stroke:none"
         id="path350"
         inkscape:connector-curvature="0" /></g><g
       id="g352"
       transform="translate(459.4266,119.202)"><path
         d="m 0,0 c -0.451,-0.653 -0.68,-0.976 -1.144,-1.613 -2.313,1.374 -3.469,2.06 -5.782,3.434 0.42,0.576 0.627,0.868 1.034,1.459 C -3.535,1.968 -2.357,1.312 0,0 m -8.465,2.648 c -0.513,0.306 -0.585,0.708 -0.226,1.215 0.36,0.509 0.798,0.623 1.322,0.332 C -7.119,4.056 -6.97,3.883 -6.923,3.673 -6.875,3.464 -6.944,3.227 -7.13,2.965 -7.5,2.443 -7.948,2.34 -8.465,2.648"
         style="fill:#000000;fill-opacity:1;fill-rule:nonzero;stroke:none"
         id="path354"
         inkscape:connector-curvature="0" /></g><g
       id="g356"
       transform="translate(464.0659,126.8574)"><path
         d="m 0,0 c -0.385,-0.728 -0.582,-1.087 -0.982,-1.798 -1.458,0.636 -2.187,0.954 -3.646,1.591 -0.45,0.197 -0.833,0.265 -1.144,0.21 -0.313,-0.056 -0.565,-0.251 -0.759,-0.583 -0.265,-0.454 -0.302,-0.85 -0.111,-1.199 0.19,-0.35 0.645,-0.701 1.364,-1.05 1.15,-0.556 1.724,-0.834 2.873,-1.39 -0.421,-0.688 -0.635,-1.027 -1.071,-1.698 -2.401,1.246 -3.602,1.869 -6.003,3.115 0.301,0.464 0.45,0.698 0.743,1.171 0.363,-0.069 0.545,-0.104 0.908,-0.171 0.022,0.035 0.033,0.052 0.054,0.088 -0.187,0.319 -0.263,0.667 -0.231,1.046 0.031,0.379 0.161,0.766 0.389,1.163 0.39,0.68 0.873,1.119 1.466,1.319 0.593,0.199 1.267,0.154 2.019,-0.149 C -2.479,0.999 -1.652,0.666 0,0"
         style="fill:#000000;fill-opacity:1;fill-rule:nonzero;stroke:none"
         id="path358"
         inkscape:connector-curvature="0" /></g><g
       id="g360"
       transform="translate(461.3277,131.6243)"><path
         d="M 0,0 C 0.353,-0.122 0.669,-0.138 0.952,-0.044 1.234,0.049 1.453,0.264 1.608,0.604 1.764,0.947 1.772,1.234 1.635,1.46 1.498,1.686 1.25,1.853 0.892,1.964 0.1,2.21 -0.436,2.008 -0.726,1.37 -1.02,0.723 -0.781,0.27 0,0 m 4.952,-2.523 c 0.244,-0.087 0.495,-0.029 0.756,0.177 0.261,0.206 0.501,0.541 0.716,1.008 0.322,0.702 0.478,1.288 0.477,1.746 C 6.899,0.866 6.741,1.14 6.433,1.231 6.185,1.305 5.963,1.237 5.768,1.031 5.572,0.824 5.368,0.477 5.152,-0.008 4.973,-0.408 4.883,-0.607 4.7,-1.002 4.537,-1.353 4.476,-1.669 4.517,-1.957 4.558,-2.245 4.701,-2.433 4.952,-2.523 M -0.247,5.075 C 0.124,4.976 0.31,4.926 0.68,4.827 0.622,4.377 0.591,4.153 0.526,3.705 0.902,3.811 1.275,3.815 1.644,3.711 2.359,3.511 2.812,3.096 2.992,2.464 3.172,1.831 3.06,1.048 2.647,0.144 2.579,0.012 2.545,-0.053 2.477,-0.184 2.415,-0.289 2.384,-0.342 2.322,-0.446 2.374,-0.683 2.484,-0.831 2.654,-0.89 2.91,-0.978 3.2,-0.683 3.514,0.007 3.726,0.475 3.831,0.711 4.038,1.186 4.37,1.951 4.771,2.499 5.253,2.824 5.734,3.149 6.28,3.236 6.891,3.072 7.673,2.862 8.137,2.335 8.264,1.485 8.391,0.635 8.159,-0.48 7.546,-1.81 7.077,-2.826 6.544,-3.532 5.974,-3.935 5.404,-4.337 4.837,-4.423 4.277,-4.207 3.893,-4.059 3.636,-3.806 3.506,-3.453 3.376,-3.101 3.377,-2.657 3.507,-2.121 3.337,-2.284 3.13,-2.405 2.885,-2.481 2.641,-2.557 2.422,-2.559 2.227,-2.486 1.982,-2.395 1.814,-2.246 1.723,-2.039 1.632,-1.833 1.576,-1.564 1.551,-1.23 1.238,-1.527 0.868,-1.714 0.446,-1.794 c -0.419,-0.08 -0.847,-0.035 -1.283,0.129 -0.7,0.263 -1.127,0.69 -1.294,1.274 -0.168,0.583 -0.058,1.28 0.322,2.116 0.081,0.178 0.193,0.384 0.335,0.619 0.143,0.236 0.235,0.387 0.282,0.451 0.39,0.9 0.579,1.356 0.945,2.28"
         style="fill:#000000;fill-opacity:1;fill-rule:nonzero;stroke:none"
         id="path362"
         inkscape:connector-curvature="0" /></g></g></g></g></svg>