<svg xmlns="http://www.w3.org/2000/svg" xmlns:xlink="http://www.w3.org/1999/xlink" width="145.92" height="252.398" viewBox="0 0 145.92 252.39799"><g transform="translate(-233 -270)"><defs><path id="a" d="M233 270h145.92v253H233z"/></defs><clipPath id="b"><use xlink:href="#a" overflow="visible" width="100%" height="100%"/></clipPath><path clip-path="url(#b)" d="M373.398 382.801L267 276.398c-4-4-9.602-6.398-14.398-6.398-4.801 0-9.602 2.398-13.602 6.398-8 8-8 19.204 0 27.204l92.801 92.796L239 489.199c-8 8-8 19.199 0 27.199s20 8 28 0L373.398 410c4-4 5.602-8.801 5.602-13.602 0-5.597-1.602-9.597-5.602-13.597zm0 0" fill="#ffe9b9"/></g></svg>