<?xml version="1.0" encoding="UTF-8" standalone="no"?>
<!-- Generator: Adobe Illustrator 16.0.0, SVG Export Plug-In . SVG Version: 6.00 Build 0)  -->

<svg
   xmlns:dc="http://purl.org/dc/elements/1.1/"
   xmlns:cc="http://creativecommons.org/ns#"
   xmlns:rdf="http://www.w3.org/1999/02/22-rdf-syntax-ns#"
   xmlns:svg="http://www.w3.org/2000/svg"
   xmlns="http://www.w3.org/2000/svg"
   xmlns:sodipodi="http://sodipodi.sourceforge.net/DTD/sodipodi-0.dtd"
   xmlns:inkscape="http://www.inkscape.org/namespaces/inkscape"
   version="1.1"
   id="Слой_1"
   x="0px"
   y="0px"
   width="24.05986"
   height="24.000999"
   viewBox="0 0 24.05986 24.000999"
   enable-background="new 0 0 612 792"
   xml:space="preserve"
   inkscape:version="0.91 r13725"
   sodipodi:docname="sale-sticker.svg"><metadata
   id="metadata4176"><rdf:RDF><cc:Work
       rdf:about=""><dc:format>image/svg+xml</dc:format><dc:type
         rdf:resource="http://purl.org/dc/dcmitype/StillImage" /><dc:title></dc:title></cc:Work></rdf:RDF></metadata><defs
   id="defs4174" /><sodipodi:namedview
   pagecolor="#ffffff"
   bordercolor="#666666"
   borderopacity="1"
   objecttolerance="10"
   gridtolerance="10"
   guidetolerance="10"
   inkscape:pageopacity="0"
   inkscape:pageshadow="2"
   inkscape:window-width="1366"
   inkscape:window-height="705"
   id="namedview4172"
   showgrid="false"
   inkscape:zoom="19.070707"
   inkscape:cx="13.857114"
   inkscape:cy="10.475272"
   inkscape:window-x="-8"
   inkscape:window-y="-8"
   inkscape:window-maximized="1"
   inkscape:current-layer="Слой_1"
   fit-margin-top="0"
   fit-margin-left="0"
   fit-margin-right="0"
   fit-margin-bottom="0" />
<g
   id="g4164"
   transform="translate(-292.98314,-384)">
	<path
   d="m 315.93,394.02 -0.742,-0.493 c -0.141,-0.093 -0.211,-0.363 -0.137,-0.511 l 0.395,-0.797 c 0.379,-0.77 0.375,-1.586 -0.012,-2.254 -0.387,-0.668 -1.094,-1.082 -1.945,-1.137 l -0.887,-0.055 c -0.168,-0.011 -0.363,-0.211 -0.375,-0.378 l -0.059,-0.883 c -0.082,-1.317 -1.004,-2.239 -2.234,-2.239 -0.391,0 -0.777,0.094 -1.152,0.282 l -0.797,0.394 c -0.133,0.063 -0.43,-0.011 -0.512,-0.137 l -0.492,-0.742 c -0.453,-0.679 -1.164,-1.07 -1.958,-1.07 -0.789,0 -1.5,0.391 -1.953,1.07 l -0.496,0.742 c -0.082,0.126 -0.383,0.2 -0.512,0.137 l -0.796,-0.394 c -0.375,-0.188 -0.762,-0.282 -1.153,-0.282 -1.23,0 -2.148,0.918 -2.234,2.239 l -0.059,0.886 c -0.011,0.164 -0.207,0.364 -0.371,0.375 l -0.89,0.055 c -0.852,0.055 -1.563,0.469 -1.946,1.137 -0.386,0.668 -0.39,1.484 -0.011,2.25 l 0.394,0.801 c 0.074,0.148 0.004,0.418 -0.137,0.511 l -0.742,0.493 c -0.711,0.472 -1.117,1.183 -1.117,1.957 0,0.769 0.406,1.48 1.117,1.953 l 0.742,0.496 c 0.141,0.094 0.211,0.359 0.137,0.512 l -0.394,0.797 c -0.379,0.766 -0.375,1.586 0.011,2.254 0.387,0.668 1.094,1.078 1.946,1.133 l 0.89,0.055 c 0.168,0.012 0.363,0.211 0.375,0.375 l 0.055,0.891 c 0.086,1.316 1.008,2.234 2.238,2.234 0.387,0 0.774,-0.094 1.153,-0.281 l 0.792,-0.391 c 0.137,-0.07 0.43,0.012 0.512,0.137 l 0.496,0.738 c 0.473,0.715 1.184,1.121 1.953,1.121 0.77,0 1.485,-0.406 1.958,-1.117 l 0.492,-0.742 c 0.082,-0.121 0.387,-0.203 0.512,-0.137 l 0.797,0.395 c 0.379,0.188 0.766,0.281 1.152,0.281 1.234,0 2.152,-0.918 2.238,-2.238 l 0.055,-0.887 c 0.012,-0.168 0.207,-0.363 0.375,-0.375 l 0.887,-0.055 c 0.852,-0.055 1.559,-0.469 1.945,-1.137 0.386,-0.668 0.391,-1.488 0.012,-2.25 l -0.395,-0.801 c -0.074,-0.148 -0.004,-0.418 0.137,-0.512 l 0.738,-0.492 c 0.711,-0.473 1.117,-1.188 1.117,-1.957 0,-0.77 -0.406,-1.485 -1.113,-1.957 l 0,0 z m -0.215,3.593 -0.738,0.496 c -0.301,0.199 -0.426,0.676 -0.266,0.996 l 0.395,0.801 c 0.32,0.648 0.32,1.336 0,1.891 -0.32,0.555 -0.918,0.898 -1.641,0.945 l -0.887,0.055 c -0.359,0.027 -0.707,0.375 -0.73,0.734 l -0.055,0.887 c -0.074,1.109 -0.836,1.879 -1.859,1.879 -0.328,0 -0.66,-0.082 -0.98,-0.242 l -0.801,-0.395 c -0.091,-0.043 -0.191,-0.063 -0.301,-0.063 -0.234,0 -0.543,0.102 -0.695,0.332 l -0.492,0.742 c -0.402,0.602 -1,0.949 -1.641,0.949 -0.64,0 -1.234,-0.348 -1.636,-0.949 l -0.496,-0.742 c -0.133,-0.199 -0.411,-0.332 -0.696,-0.332 -0.109,0 -0.211,0.02 -0.3,0.063 l -0.797,0.395 c -0.325,0.16 -0.657,0.242 -0.985,0.242 -1.019,0 -1.781,-0.773 -1.855,-1.879 l -0.055,-0.891 c -0.023,-0.355 -0.371,-0.703 -0.73,-0.73 l -0.891,-0.055 c -0.723,-0.047 -1.32,-0.391 -1.641,-0.945 -0.32,-0.555 -0.32,-1.246 0,-1.891 l 0.395,-0.801 c 0.16,-0.32 0.035,-0.797 -0.266,-0.996 l -0.742,-0.496 c -0.601,-0.398 -0.949,-0.996 -0.949,-1.636 0,-0.641 0.348,-1.239 0.949,-1.641 l 0.742,-0.492 c 0.297,-0.199 0.426,-0.676 0.266,-1 l -0.395,-0.797 c -0.32,-0.649 -0.32,-1.34 0,-1.891 0.321,-0.554 0.918,-0.898 1.641,-0.945 l 0.891,-0.055 c 0.359,-0.027 0.703,-0.375 0.726,-0.734 l 0.059,-0.887 c 0.074,-1.109 0.836,-1.879 1.855,-1.879 0.332,0 0.66,0.078 0.985,0.242 l 0.8,0.395 c 0.309,0.145 0.809,0.008 0.993,-0.27 l 0.496,-0.742 c 0.379,-0.57 0.976,-0.898 1.636,-0.898 0.661,0 1.258,0.328 1.641,0.898 l 0.492,0.742 c 0.188,0.278 0.688,0.422 0.996,0.266 l 0.801,-0.394 c 0.32,-0.161 0.652,-0.239 0.98,-0.239 1.023,0 1.785,0.77 1.855,1.879 l 0.059,0.887 c 0.023,0.359 0.371,0.707 0.73,0.73 l 0.887,0.059 c 0.723,0.047 1.32,0.391 1.641,0.945 0.32,0.551 0.32,1.246 -0.004,1.891 l -0.395,0.797 c -0.156,0.324 -0.031,0.801 0.27,1 l 0.742,0.496 c 0.598,0.398 0.945,0.996 0.945,1.637 0,0.64 -0.344,1.238 -0.949,1.636 l 0,0 z m 0,0"
   id="path4166"
   inkscape:connector-curvature="0" />
	<path
   d="m 303.324,394.055 -0.027,0 c -0.063,0.41 -0.156,1.05 -0.219,1.406 l -0.23,1.281 0.879,0 -0.2,-1.289 c -0.066,-0.375 -0.148,-0.988 -0.203,-1.398 l 0,0 z m 0,0"
   id="path4168"
   inkscape:connector-curvature="0" />
	<path
   d="m 315.188,395.129 -0.738,-0.492 c -0.699,-0.465 -0.965,-1.461 -0.594,-2.211 l 0.395,-0.801 c 0.371,-0.75 -0.012,-1.41 -0.848,-1.465 l -0.887,-0.058 c -0.836,-0.051 -1.566,-0.782 -1.617,-1.618 l -0.059,-0.886 c -0.055,-0.836 -0.715,-1.219 -1.465,-0.848 l -0.797,0.395 c -0.754,0.371 -1.75,0.105 -2.215,-0.594 l -0.492,-0.739 c -0.465,-0.699 -1.226,-0.699 -1.691,0 l -0.496,0.739 c -0.465,0.699 -1.457,0.965 -2.211,0.594 l -0.797,-0.395 c -0.754,-0.371 -1.414,0.012 -1.465,0.848 l -0.059,0.886 c -0.054,0.836 -0.785,1.567 -1.621,1.621 l -0.89,0.055 c -0.836,0.055 -1.215,0.715 -0.844,1.465 l 0.394,0.801 c 0.371,0.75 0.106,1.746 -0.593,2.211 l -0.743,0.492 c -0.695,0.465 -0.695,1.227 0,1.691 l 0.743,0.496 c 0.699,0.465 0.964,1.461 0.593,2.211 l -0.394,0.801 c -0.371,0.75 0.008,1.41 0.844,1.465 l 0.894,0.055 c 0.836,0.055 1.563,0.785 1.617,1.621 l 0.059,0.887 c 0.055,0.836 0.711,1.215 1.465,0.844 l 0.793,-0.391 c 0.754,-0.375 1.75,-0.105 2.215,0.59 l 0.496,0.742 c 0.465,0.699 1.226,0.699 1.691,0 l 0.492,-0.742 c 0.465,-0.695 1.461,-0.965 2.215,-0.59 l 0.797,0.395 c 0.754,0.371 1.41,-0.012 1.465,-0.848 l 0.059,-0.887 c 0.055,-0.836 0.781,-1.566 1.621,-1.621 l 0.883,-0.055 c 0.836,-0.055 1.219,-0.715 0.848,-1.465 l -0.395,-0.801 c -0.371,-0.75 -0.105,-1.746 0.59,-2.211 l 0.742,-0.496 c 0.699,-0.465 0.699,-1.226 0,-1.691 l 0,0 z m -16.168,4.008 c -0.497,0 -0.981,-0.129 -1.18,-0.246 l 0.172,-1.035 c 0.246,0.137 0.668,0.238 1.015,0.238 0.567,0 0.84,-0.293 0.84,-0.695 0,-0.449 -0.273,-0.668 -0.793,-1.004 -0.844,-0.512 -1.164,-1.161 -1.164,-1.719 0,-0.988 0.66,-1.813 1.949,-1.813 0.403,0 0.786,0.11 0.969,0.223 l -0.191,1.031 c -0.176,-0.109 -0.442,-0.211 -0.789,-0.211 -0.512,0 -0.758,0.313 -0.758,0.641 0,0.367 0.183,0.558 0.851,0.961 0.813,0.492 1.118,1.113 1.118,1.762 -0.004,1.125 -0.836,1.867 -2.039,1.867 l 0,0 z m 5.082,-0.055 -0.266,-1.41 -1.106,0 -0.273,1.41 -1.164,0 1.336,-6.16 1.433,0 1.2,6.16 -1.16,0 z m 4.621,0 -2.781,0 0,-6.16 1.199,0 0,5.145 1.582,0 0,1.015 z m 3.484,0 -2.789,0 0,-6.16 2.68,0 0,1.043 -1.484,0 0,1.414 1.41,0 0,0.996 -1.41,0 0,1.664 1.594,0 0,1.043 z m 0,0"
   id="path4170"
   inkscape:connector-curvature="0" />
</g>
<path
   style="fill:#ffffff;fill-opacity:1;stroke:#ffffc2;stroke-width:0.11078954;stroke-miterlimit:4;stroke-dasharray:none;stroke-opacity:1"
   d="M 11.48827,22.37192 C 11.3462,22.23936 11.07139,21.89843 10.87756,21.61429 10.14057,20.53386 9.3067201,20.34506 8.0539101,20.97496 c -0.7348,0.36945 -1.14372,0.40349 -1.44896,0.1206 -0.26612,-0.24663 -0.31474,-0.40449 -0.37773,-1.22642 -0.0616,-0.8037 -0.17059,-1.11967 -0.50744,-1.47109 -0.39447,-0.41152 -0.74194,-0.54523 -1.57322,-0.60537 -0.83779,-0.0606 -1.16151,-0.18612 -1.3324,-0.51658 -0.17607,-0.34049 -0.13745,-0.56996 0.22722,-1.35008 0.2852,-0.61014 0.33936,-0.79705 0.3376,-1.16517 -0.004,-0.79207 -0.25532,-1.14392 -1.37026,-1.91669 -0.37091,-0.25709 -0.64114,-0.62783 -0.64158,-0.88024 -4.8e-4,-0.26694 0.31755,-0.64551 0.8503,-1.01216 0.28156,-0.19378 0.58883,-0.42457 0.68282,-0.51287 0.2942,-0.27639 0.4763,-0.74946 0.47866,-1.24353 0.002,-0.38386 -0.0488,-0.5608 -0.33754,-1.17839 -0.36467,-0.78013 -0.40329,-1.0096 -0.22722,-1.35008 0.16164,-0.31258 0.47219,-0.4419 1.16766,-0.48627 0.89795,-0.0573 1.19885,-0.15509 1.60759,-0.52258 0.45,-0.40459 0.5706,-0.70541 0.63636,-1.58731 0.0597,-0.80104 0.18815,-1.14352 0.48666,-1.29789 0.34213,-0.17692 0.65863,-0.12599 1.40265,0.22574 0.84891,0.4013 1.29503,0.43844 1.8909899,0.1574 0.41414,-0.1953 0.55011,-0.33001 0.98224,-0.97312 0.45635,-0.67915 0.63302,-0.81572 1.05525,-0.81572 0.42257,0 0.55568,0.10018 0.98525,0.74156 0.43117,0.64375 0.63892,0.84974 1.05586,1.04684 0.59562,0.28158 1.04161,0.24456 1.89098,-0.15696 0.82856,-0.39169 1.14331,-0.42288 1.47249,-0.14589 0.27374,0.23034 0.35519,0.48256 0.41827,1.29531 0.0562,0.72393 0.20816,1.12369 0.55548,1.46115 0.38186,0.37101 0.70481,0.48654 1.54453,0.5525 0.86925,0.0683 1.1347,0.18282 1.31777,0.56861 0.15122,0.31869 0.11058,0.52541 -0.25785,1.31162 -0.37306,0.79609 -0.42397,1.10384 -0.27016,1.63294 0.14333,0.49305 0.40319,0.79221 1.10908,1.27686 0.61349,0.42121 0.81413,0.67254 0.81413,1.01981 0,0.34586 -0.19951,0.5972 -0.80944,1.01974 -0.69734,0.48309 -0.84798,0.63323 -1.02294,1.01956 -0.25762,0.56885 -0.20514,1.08905 0.19823,1.96514 0.37685,0.81846 0.39098,0.89303 0.23843,1.25812 -0.15012,0.35929 -0.44973,0.48407 -1.33188,0.55467 -0.84376,0.0675 -1.18908,0.20064 -1.58084,0.60933 -0.33035,0.34464 -0.44615,0.6668 -0.50216,1.39705 -0.11669,1.52141 -0.55762,1.79715 -1.86747,1.16785 -0.58321,-0.2802 -0.71359,-0.31485 -1.17509,-0.31227 -0.80884,0.005 -1.16765,0.24219 -1.80452,1.19525 -0.39378,0.58929 -0.62256,0.76699 -0.98743,0.76699 -0.22218,0 -0.34655,-0.0549 -0.54601,-0.241 z M 7.0027401,14.96454 c 1.13586,-0.49689 1.46132,-1.93229 0.65886,-2.90582 -0.12642,-0.15337 -0.46918,-0.44035 -0.76169,-0.63773 -0.65361,-0.44105 -0.74255,-0.54491 -0.74255,-0.86705 0,-0.50078 0.55931,-0.74712 1.1956,-0.52656 0.35256,0.1222 0.34081,0.1339 0.43094,-0.42889 0.0261,-0.16315 0.0631,-0.35357 0.0821,-0.42317 0.0527,-0.19283 -0.68593,-0.38738 -1.24773,-0.32866 -0.45039,0.0471 -1.04576,0.30252 -1.26142,0.54122 -0.41541,0.45978 -0.55501,1.41242 -0.29187,1.99169 0.13366,0.29422 0.62065,0.77159 1.27036,1.24528 0.42515,0.30996 0.56146,0.5791 0.47351,0.93495 -0.0505,0.20413 -0.13065,0.29736 -0.34651,0.40281 -0.24267,0.11855 -0.33848,0.12645 -0.70449,0.0581 -0.23299,-0.0435 -0.4941,-0.0996 -0.58024,-0.12464 -0.1888,-0.0549 -0.22491,0.0213 -0.2923,0.61684 l -0.0496,0.438 0.32339,0.0843 c 0.72209,0.18835 1.3022,0.16608 1.8436,-0.0707 z m 2.63445,-0.54589 0.12685,-0.70449 0.5351199,0 0.53512,0 0.12183,0.67808 c 0.067,0.37294 0.13514,0.69137 0.1514,0.70763 0.0163,0.0163 0.29492,0.0198 0.61924,0.008 l 0.58969,-0.0217 -0.59999,-3.07749 -0.59999,-3.07749 -0.75913,-0.0211 c -0.4175099,-0.0116 -0.7591199,-0.003 -0.7591199,0.0202 0,0.0566 -1.25991,5.90097 -1.30708,6.0632 -0.0338,0.11636 0.0273,0.12978 0.59074,0.12978 l 0.62848,0 0.12684,-0.70449 z m 6.1159999,0.14831 0,-0.55617 -0.77865,0 -0.77864,0 0,-2.55839 0,-2.5584 -0.63033,0 -0.63033,0 0,3.11457 0,3.11457 1.40898,0 1.40897,0 0,-0.55618 z m 3.48534,0 0,-0.55617 -0.77864,0 -0.77864,0 0,-0.81572 0,-0.81572 0.70448,0 0.70449,0 0,-0.51909 0,-0.5191 -0.70449,0 -0.70448,0 0,-0.6674 0,-0.66741 0.74156,0 0.74157,0 0,-0.55617 0,-0.55618 -1.3719,0 -1.37189,0 0,3.11457 0,3.11457 1.40897,0 1.40897,0 0,-0.55618 z"
   id="path4718"
   inkscape:connector-curvature="0" /><path
   style="fill:#ffffff;fill-opacity:1;stroke:#ffffc2;stroke-width:0.11078954;stroke-miterlimit:4;stroke-dasharray:none;stroke-opacity:1"
   d="m 9.9173401,12.57598 c 0.0211,-0.055 0.1147899,-0.57111 0.2081799,-1.14692 0.0934,-0.57581 0.18182,-1.03493 0.19649,-1.02026 0.0147,0.0147 0.0909,0.43902 0.16937,0.943 0.0785,0.50397 0.15907,1.00808 0.17909,1.12025 0.0361,0.20245 0.0334,0.20393 -0.37756,0.20393 -0.3167999,0 -0.4049399,-0.0235 -0.3755699,-0.1 z"
   id="path4720"
   inkscape:connector-curvature="0" /><path
   style="fill:#ffffff;fill-opacity:1;stroke:#ffffc2;stroke-width:0.11078954;stroke-miterlimit:4;stroke-dasharray:none;stroke-opacity:1"
   d="m 11.40501,23.87137 c -0.46865,-0.14468 -0.94614,-0.54751 -1.40381,-1.18429 -0.2517699,-0.3503 -0.5327999,-0.6586 -0.6325799,-0.69396 -0.14071,-0.0499 -0.33174,0.006 -0.88339,0.25954 -0.66645,0.30601 -0.73932,0.32312 -1.37126,0.32191 -0.78119,-0.001 -1.09839,-0.13088 -1.55215,-0.63314 -0.41482,-0.45916 -0.55414,-0.84175 -0.63817,-1.75255 -0.087,-0.94253 -0.1682,-1.06095 -0.72853,-1.06186 -1.28984,-0.002 -2.14941,-0.44059 -2.61556,-1.33426 -0.14165,-0.27156 -0.1734,-0.44417 -0.17055,-0.92695 0.003,-0.54565 0.0309,-0.65201 0.34435,-1.32562 0.42991,-0.92379 0.41577,-0.9768 -0.40797,-1.5294 C 0.61833007,13.52305 0.22430007,13.0054 0.09872007,12.373 c -0.18682,-0.94079 0.22234,-1.74104 1.24549003,-2.43594 0.82414,-0.55974 0.83818,-0.61237 0.40915,-1.53426 -0.31358,-0.67381 -0.34111,-0.77981 -0.3442,-1.32563 -0.003,-0.50469 0.0265,-0.65012 0.19667,-0.97425 0.40839,-0.77787 1.12093,-1.17074 2.28234,-1.25841 0.92419,-0.0698 0.94316,-0.0898 1.03548,-1.0904 0.10754,-1.16564 0.4157,-1.73607 1.18084,-2.18588 0.30356,-0.17845 0.41722,-0.20109 1.00948,-0.20109 0.63285,0 0.70138,0.0163 1.3234,0.31516 0.96782,0.46498 0.99897,0.45657 1.5878999,-0.42893 0.56979,-0.85674 1.13377,-1.18446 2.03626,-1.18324 0.89355,0.001 1.44557,0.34539 2.07949,1.29661 0.50446,0.75696 0.56624,0.76993 1.51004,0.31707 1.15816,-0.55573 2.07415,-0.46778 2.81192,0.27 0.46744,0.46743 0.61775,0.86614 0.70053,1.85811 0.0776,0.93043 0.10986,0.96244 1.03906,1.03259 1.17002,0.0883 1.88094,0.48278 2.25646,1.252 0.37175,0.7615 0.3122,1.44969 -0.21626,2.49907 -0.17806,0.35357 -0.24876,0.57874 -0.21898,0.69738 0.0282,0.11238 0.26538,0.32561 0.66136,0.59459 0.94394,0.64119 1.30866,1.22198 1.30866,2.08394 0,0.86196 -0.36472,1.44275 -1.30866,2.08394 -0.37908,0.2575 -0.63359,0.48391 -0.65935,0.58658 -0.0272,0.10834 0.0616,0.38829 0.25233,0.79523 0.50852,1.08515 0.55048,1.64308 0.18096,2.40607 -0.3786,0.78173 -1.09004,1.18617 -2.21674,1.26018 -0.97466,0.064 -1.00049,0.0886 -1.07884,1.02757 -0.0767,0.9185 -0.22084,1.33768 -0.61367,1.78396 -0.43193,0.4907 -0.90715,0.69636 -1.61015,0.69682 -0.50091,3e-4 -0.62986,-0.0329 -1.29774,-0.33445 -0.96591,-0.4361 -1.02186,-0.42353 -1.52475,0.34246 -0.60355,0.91932 -1.12262,1.26362 -1.9606,1.30048 -0.2855,0.0126 -0.62372,-0.009 -0.75159,-0.049 z m 1.24309,-0.33356 c 0.45963,-0.15661 0.81151,-0.46762 1.21388,-1.07287 0.61845,-0.93028 0.84348,-0.9917 1.85505,-0.50632 1.03987,0.49897 1.79589,0.46971 2.43665,-0.0943 0.44359,-0.39047 0.63742,-0.87383 0.70663,-1.76216 0.0306,-0.39327 0.0959,-0.78976 0.14501,-0.88111 0.13874,-0.25804 0.43582,-0.36716 1.16017,-0.42611 0.86254,-0.0702 1.35849,-0.25695 1.70703,-0.64275 0.36508,-0.4041 0.49858,-0.75075 0.49887,-1.2954 2.3e-4,-0.38403 -0.0536,-0.57134 -0.34896,-1.2158 -0.5068,-1.10562 -0.50603,-1.10767 0.77253,-2.05425 0.61809,-0.4576 0.89295,-0.94672 0.89295,-1.58901 0,-0.8012 -0.29195,-1.25375 -1.21202,-1.87873 -0.61301,-0.4164 -0.7902,-0.62846 -0.7902,-0.94569 0,-0.0873 0.15434,-0.48884 0.34297,-0.89238 0.29474,-0.63052 0.34298,-0.79988 0.34298,-1.20425 0,-0.58621 -0.2059,-1.04384 -0.63486,-1.41101 C 21.3713,5.35283 20.91276,5.21247 20.03443,5.14456 19.05293,5.06866 18.92023,4.91069 18.83974,3.72235 18.78944,2.98009 18.58465,2.46473 18.20287,2.11981 17.53853,1.51962 16.76834,1.47992 15.7033,1.99096 14.70599,2.4695 14.48559,2.41427 13.89393,1.53756 13.28183,0.63057 12.72116,0.3153 11.84528,0.3856 11.18295,0.4388 10.78786,0.69766 10.2892,1.40525 9.5733901,2.42097 9.3973201,2.47553 8.3920701,1.99318 c -1.12029,-0.53755 -1.87487,-0.48248 -2.54276,0.18558 -0.42437,0.42447 -0.626,0.96417 -0.62674,1.67749 -9.9e-4,0.96522 -0.23209,1.2112 -1.21273,1.29078 -0.94394,0.0766 -1.33363,0.21399 -1.74989,0.61695 -0.28269,0.27365 -0.38859,0.4454 -0.48963,0.79411 -0.16363,0.56471 -0.0863,0.98935 0.34552,1.89808 0.43684,0.91921 0.38012,1.07235 -0.65283,1.76268 -0.74775003,0.49973 -1.07360003,1.04677 -1.07002003,1.79635 0.003,0.72311 0.3348,1.22991 1.15926003,1.77313 0.90686,0.59752 0.9955,0.83267 0.60569,1.60674 -0.65019,1.2911 -0.62713,2.04381 0.0854,2.7875 0.34598,0.36111 0.87,0.5522 1.6908,0.61658 0.71626,0.0562 1.01287,0.16484 1.15165,0.4219 0.0493,0.0913 0.1139,0.50181 0.14353,0.91214 0.0641,0.88846 0.22946,1.29824 0.69801,1.73013 0.61734,0.56905 1.39487,0.59986 2.44323,0.0968 0.68648,-0.32939 1.02002,-0.38161 1.27897,-0.20024 0.0872,0.0611 0.34392,0.37565 0.5705799,0.69912 0.22665,0.32346 0.52452,0.67386 0.66193,0.77866 0.52191,0.39809 1.16023,0.50657 1.76606,0.30014 z"
   id="path4722"
   inkscape:connector-curvature="0" /></svg>